/* XPM */
static char *ACharUp[] = {
/* columns rows colors chars-per-pixel */
"48 48 7 1 ",
"  c #915841",
". c #A0654D",
"X c #B56E4B",
"o c #E09669",
"O c #F6C192",
"+ c #CFCCC5",
"@ c None",
/* pixels */
"@@@@@@@@@@@@@@@@@@@@@@@@@@@@@@@@@@@@@@@@@@@@@@@@",
"@@@@@@@@@@@@@@@@@@@@@@@@@@@@@@@@@@@@@@@@@@@@@@@@",
"@@@@@@@@@@@@@@@@@@@@@@@@@@@@@@@@@@@@@@@@@@@@@@@@",
"@@@@@@@@@@@@@@@@@@@@@@@@@@@@@@@@@@@@@@@@@@@@@@@@",
"@@@@@@@@@@@@@@@@@@@@@@@@@@@@@@@@@@@@@@@@@@@@@@@@",
"@@@@@@@@@@@@@@@@@@@@@@@@@@@@@@@@@@@@@@@@@@@@@@@@",
"@@@@@@@@@@@@@@@@@@@@@@@@@@@@@@@@@@@@@@@@@@@@@@@@",
"@@@@@@@@@@@@@@@@@@@@@@@@@@@@@@@@@@@@@@@@@@@@@@@@",
"@@@@@@@@@@@@@@@@@@            @@@@@@@@@@@@@@@@@@",
"@@@@@@@@@@@@@@@@@@            @@@@@@@@@@@@@@@@@@",
"@@@@@@@@@@@@@@@@  ..ooXXXXoo..  @@@@@@@@@@@@@@@@",
"@@@@@@@@@@@@@@@@  ..ooXXXXoo..  @@@@@@@@@@@@@@@@",
"@@@@@@@@@@@@@@  ..ooXXXXXXXXoo..  @@@@@@@@@@@@@@",
"@@@@@@@@@@@@@@  ..ooXXXXXXXXoo..  @@@@@@@@@@@@@@",
"@@@@@@@@@@@@@@  XXooXXXXXXXXooXX  @@@@@@@@@@@@@@",
"@@@@@@@@@@@@@@  XXooXXXXXXXXooXX  @@@@@@@@@@@@@@",
"@@@@@@@@@@@@  ..XXXXooXXXXooXXXX..  @@@@@@@@@@@@",
"@@@@@@@@@@@@  ..XXXXooXXXXooXXXX..  @@@@@@@@@@@@",
"@@@@@@@@@@@@  ....XXXXXXXXXXXX....  @@@@@@@@@@@@",
"@@@@@@@@@@@@  ....XXXXXXXXXXXX....  @@@@@@@@@@@@",
"@@@@@@@@@@@@    ......XXXX......    @@@@@@@@@@@@",
"@@@@@@@@@@@@    ......XXXX......    @@@@@@@@@@@@",
"@@@@@@@@@@@@@@    ............    @@@@@@@@@@@@@@",
"@@@@@@@@@@@@@@    ............    @@@@@@@@@@@@@@",
"@@@@@@@@@@@@@@        ....        @@@@@@@@@@@@@@",
"@@@@@@@@@@@@@@        ....        @@@@@@@@@@@@@@",
"@@@@@@@@@@@@@@@@                @@@@@@@@@@@@@@@@",
"@@@@@@@@@@@@@@@@                @@@@@@@@@@@@@@@@",
"@@@@@@@@@@@@@@XX++            ++XX@@@@@@@@@@@@@@",
"@@@@@@@@@@@@@@XX++            ++XX@@@@@@@@@@@@@@",
"@@@@@@@@@@@@XXoo++++++++++++++++ooXX@@@@@@@@@@@@",
"@@@@@@@@@@@@XXoo++++++++++++++++ooXX@@@@@@@@@@@@",
"@@@@@@@@@@@@XXOOoo++++++++++++ooOOXX@@@@@@@@@@@@",
"@@@@@@@@@@@@XXOOoo++++++++++++ooOOXX@@@@@@@@@@@@",
"@@@@@@@@@@@@@@XXXX++++++++++++XXXX@@@@@@@@@@@@@@",
"@@@@@@@@@@@@@@XXXX++++++++++++XXXX@@@@@@@@@@@@@@",
"@@@@@@@@@@@@@@@@XXooooXXXXooooXX@@@@@@@@@@@@@@@@",
"@@@@@@@@@@@@@@@@XXooooXXXXooooXX@@@@@@@@@@@@@@@@",
"@@@@@@@@@@@@@@@@@@XXXX@@@@XXXX@@@@@@@@@@@@@@@@@@",
"@@@@@@@@@@@@@@@@@@XXXX@@@@XXXX@@@@@@@@@@@@@@@@@@",
"@@@@@@@@@@@@@@@@@@@@@@@@@@@@@@@@@@@@@@@@@@@@@@@@",
"@@@@@@@@@@@@@@@@@@@@@@@@@@@@@@@@@@@@@@@@@@@@@@@@",
"@@@@@@@@@@@@@@@@@@@@@@@@@@@@@@@@@@@@@@@@@@@@@@@@",
"@@@@@@@@@@@@@@@@@@@@@@@@@@@@@@@@@@@@@@@@@@@@@@@@",
"@@@@@@@@@@@@@@@@@@@@@@@@@@@@@@@@@@@@@@@@@@@@@@@@",
"@@@@@@@@@@@@@@@@@@@@@@@@@@@@@@@@@@@@@@@@@@@@@@@@",
"@@@@@@@@@@@@@@@@@@@@@@@@@@@@@@@@@@@@@@@@@@@@@@@@",
"@@@@@@@@@@@@@@@@@@@@@@@@@@@@@@@@@@@@@@@@@@@@@@@@"
};
