/* XPM */
static char *ACharLeft[] = {
/* columns rows colors chars-per-pixel */
"48 48 9 1 ",
"  c #412F2F",
". c #915841",
"X c #A0654D",
"o c #B56E4B",
"O c #E09669",
"+ c #F6C192",
"@ c #CFCCC5",
"# c #F1E6D6",
"$ c None",
/* pixels */
"$$$$$$$$$$$$$$$$$$$$$$$$$$$$$$$$$$$$$$$$$$$$$$$$",
"$$$$$$$$$$$$$$$$$$$$$$$$$$$$$$$$$$$$$$$$$$$$$$$$",
"$$$$$$$$$$$$$$$$$$$$$$$$$$$$$$$$$$$$$$$$$$$$$$$$",
"$$$$$$$$$$$$$$$$$$$$$$$$$$$$$$$$$$$$$$$$$$$$$$$$",
"$$$$$$$$$$$$$$$$$$$$$$$$$$$$$$$$$$$$$$$$$$$$$$$$",
"$$$$$$$$$$$$$$$$$$$$$$$$$$$$$$$$$$$$$$$$$$$$$$$$",
"$$$$$$$$$$$$$$$$$$$$$$$$$$$$$$$$$$$$$$$$$$$$$$$$",
"$$$$$$$$$$$$$$$$$$$$$$$$$$$$$$$$$$$$$$$$$$$$$$$$",
"$$$$$$$$$$$$$$$$$$$$..........$$$$$$$$$$$$$$$$$$",
"$$$$$$$$$$$$$$$$$$$$..........$$$$$$$$$$$$$$$$$$",
"$$$$$$$$$$$$$$$$$$..ooooooOOoo..$$$$$$$$$$$$$$$$",
"$$$$$$$$$$$$$$$$$$..ooooooOOoo..$$$$$$$$$$$$$$$$",
"$$$$$$$$$$$$$$$$..ooooooooooOOoo..$$$$$$$$$$$$$$",
"$$$$$$$$$$$$$$$$..ooooooooooOOoo..$$$$$$$$$$$$$$",
"$$$$$$$$$$$$$$..XXooOOooooooOOooXX..$$$$$$$$$$$$",
"$$$$$$$$$$$$$$..XXooOOooooooOOooXX..$$$$$$$$$$$$",
"$$$$$$$$$$$$$$..XXXXooOOOOOOooooXX..$$$$$$$$$$$$",
"$$$$$$$$$$$$$$..XXXXooOOOOOOooooXX..$$$$$$$$$$$$",
"$$$$$$$$$$$$$$........ooooooooXXXX..$$$$$$$$$$$$",
"$$$$$$$$$$$$$$........ooooooooXXXX..$$$$$$$$$$$$",
"$$$$$$$$$$$$$$$$OO..##..XXXXXXXXXX..$$$$$$$$$$$$",
"$$$$$$$$$$$$$$$$OO..##..XXXXXXXXXX..$$$$$$$$$$$$",
"$$$$$$$$$$$$$$$$OO  ++..XXXXXXXXXX..$$$$$$$$$$$$",
"$$$$$$$$$$$$$$$$OO  ++..XXXXXXXXXX..$$$$$$$$$$$$",
"$$$$$$$$$$$$$$$$OO++++++..XXXXXX..$$$$$$$$$$$$$$",
"$$$$$$$$$$$$$$$$OO++++++..XXXXXX..$$$$$$$$$$$$$$",
"$$$$$$$$$$$$$$$$$$OOOOOOoo......$$$$$$$$$$$$$$$$",
"$$$$$$$$$$$$$$$$$$OOOOOOoo......$$$$$$$$$$$$$$$$",
"$$$$$$$$$$$$$$$$$$$$oooo@@@@oo$$$$$$$$$$$$$$$$$$",
"$$$$$$$$$$$$$$$$$$$$oooo@@@@oo$$$$$$$$$$$$$$$$$$",
"$$$$$$$$$$$$$$$$$$oo@@@@@@@@@@oo$$$$$$$$$$$$$$$$",
"$$$$$$$$$$$$$$$$$$oo@@@@@@@@@@oo$$$$$$$$$$$$$$$$",
"$$$$$$$$$$$$$$$$$$ooOO@@oo@@@@oo$$$$$$$$$$$$$$$$",
"$$$$$$$$$$$$$$$$$$ooOO@@oo@@@@oo$$$$$$$$$$$$$$$$",
"$$$$$$$$$$$$$$$$$$oo++OOoo@@@@oo$$$$$$$$$$$$$$$$",
"$$$$$$$$$$$$$$$$$$oo++OOoo@@@@oo$$$$$$$$$$$$$$$$",
"$$$$$$$$$$$$$$$$$$$$ooooOOOOoo$$$$$$$$$$$$$$$$$$",
"$$$$$$$$$$$$$$$$$$$$ooooOOOOoo$$$$$$$$$$$$$$$$$$",
"$$$$$$$$$$$$$$$$$$$$$$oooooo$$$$$$$$$$$$$$$$$$$$",
"$$$$$$$$$$$$$$$$$$$$$$oooooo$$$$$$$$$$$$$$$$$$$$",
"$$$$$$$$$$$$$$$$$$$$$$$$$$$$$$$$$$$$$$$$$$$$$$$$",
"$$$$$$$$$$$$$$$$$$$$$$$$$$$$$$$$$$$$$$$$$$$$$$$$",
"$$$$$$$$$$$$$$$$$$$$$$$$$$$$$$$$$$$$$$$$$$$$$$$$",
"$$$$$$$$$$$$$$$$$$$$$$$$$$$$$$$$$$$$$$$$$$$$$$$$",
"$$$$$$$$$$$$$$$$$$$$$$$$$$$$$$$$$$$$$$$$$$$$$$$$",
"$$$$$$$$$$$$$$$$$$$$$$$$$$$$$$$$$$$$$$$$$$$$$$$$",
"$$$$$$$$$$$$$$$$$$$$$$$$$$$$$$$$$$$$$$$$$$$$$$$$",
"$$$$$$$$$$$$$$$$$$$$$$$$$$$$$$$$$$$$$$$$$$$$$$$$"
};
