/* XPM */
static char *ACharDown[] = {
/* columns rows colors chars-per-pixel */
"48 48 9 1 ",
"  c #412F2F",
". c #915841",
"X c #A0654D",
"o c #B56E4B",
"O c #E09669",
"+ c #F6C192",
"@ c #CFCCC5",
"# c #F1E6D6",
"$ c None",
/* pixels */
"$$$$$$$$$$$$$$$$$$$$$$$$$$$$$$$$$$$$$$$$$$$$$$$$",
"$$$$$$$$$$$$$$$$$$$$$$$$$$$$$$$$$$$$$$$$$$$$$$$$",
"$$$$$$$$$$$$$$$$$$$$$$$$$$$$$$$$$$$$$$$$$$$$$$$$",
"$$$$$$$$$$$$$$$$$$$$$$$$$$$$$$$$$$$$$$$$$$$$$$$$",
"$$$$$$$$$$$$$$$$$$$$$$$$$$$$$$$$$$$$$$$$$$$$$$$$",
"$$$$$$$$$$$$$$$$$$$$$$$$$$$$$$$$$$$$$$$$$$$$$$$$",
"$$$$$$$$$$$$$$$$$$$$$$$$$$$$$$$$$$$$$$$$$$$$$$$$",
"$$$$$$$$$$$$$$$$$$$$$$$$$$$$$$$$$$$$$$$$$$$$$$$$",
"$$$$$$$$$$$$$$$$$$............$$$$$$$$$$$$$$$$$$",
"$$$$$$$$$$$$$$$$$$............$$$$$$$$$$$$$$$$$$",
"$$$$$$$$$$$$$$$$..XXOOooooOOXX..$$$$$$$$$$$$$$$$",
"$$$$$$$$$$$$$$$$..XXOOooooOOXX..$$$$$$$$$$$$$$$$",
"$$$$$$$$$$$$$$..XXOOooooooooOOXX..$$$$$$$$$$$$$$",
"$$$$$$$$$$$$$$..XXOOooooooooOOXX..$$$$$$$$$$$$$$",
"$$$$$$$$$$$$$$..XXOOooooooooOOoo..$$$$$$$$$$$$$$",
"$$$$$$$$$$$$$$..XXOOooooooooOOoo..$$$$$$$$$$$$$$",
"$$$$$$$$$$$$..XXXXXXOOooooOOooooXX..$$$$$$$$$$$$",
"$$$$$$$$$$$$..XXXXXXOOooooOOooooXX..$$$$$$$$$$$$",
"$$$$$$$$$$$$..XXXXXX....ooooooXXXX..$$$$$$$$$$$$",
"$$$$$$$$$$$$..XXXXXX....ooooooXXXX..$$$$$$$$$$$$",
"$$$$$$$$$$$$..XXXX..OOOO....XXXXXX..$$$$$$$$$$$$",
"$$$$$$$$$$$$..XXXX..OOOO....XXXXXX..$$$$$$$$$$$$",
"$$$$$$$$$$$$$$....OO++++OOOO......$$$$$$$$$$$$$$",
"$$$$$$$$$$$$$$....OO++++OOOO......$$$$$$$$$$$$$$",
"$$$$$$$$$$$$$$..OO##..++++..##OO..$$$$$$$$$$$$$$",
"$$$$$$$$$$$$$$..OO##..++++..##OO..$$$$$$$$$$$$$$",
"$$$$$$$$$$$$$$$$..++  ++++  ++..$$$$$$$$$$$$$$$$",
"$$$$$$$$$$$$$$$$..++  ++++  ++..$$$$$$$$$$$$$$$$",
"$$$$$$$$$$$$$$oo@@OO++++++++OO@@oo$$$$$$$$$$$$$$",
"$$$$$$$$$$$$$$oo@@OO++++++++OO@@oo$$$$$$$$$$$$$$",
"$$$$$$$$$$$$ooOO@@@@OOOOOOOO@@@@OOoo$$$$$$$$$$$$",
"$$$$$$$$$$$$ooOO@@@@OOOOOOOO@@@@OOoo$$$$$$$$$$$$",
"$$$$$$$$$$$$oo++OO@@@@@@@@@@@@OO++oo$$$$$$$$$$$$",
"$$$$$$$$$$$$oo++OO@@@@@@@@@@@@OO++oo$$$$$$$$$$$$",
"$$$$$$$$$$$$$$oooo@@@@@@@@@@@@oooo$$$$$$$$$$$$$$",
"$$$$$$$$$$$$$$oooo@@@@@@@@@@@@oooo$$$$$$$$$$$$$$",
"$$$$$$$$$$$$$$$$ooOOOOooooOOOOoo$$$$$$$$$$$$$$$$",
"$$$$$$$$$$$$$$$$ooOOOOooooOOOOoo$$$$$$$$$$$$$$$$",
"$$$$$$$$$$$$$$$$$$oooo$$$$oooo$$$$$$$$$$$$$$$$$$",
"$$$$$$$$$$$$$$$$$$oooo$$$$oooo$$$$$$$$$$$$$$$$$$",
"$$$$$$$$$$$$$$$$$$$$$$$$$$$$$$$$$$$$$$$$$$$$$$$$",
"$$$$$$$$$$$$$$$$$$$$$$$$$$$$$$$$$$$$$$$$$$$$$$$$",
"$$$$$$$$$$$$$$$$$$$$$$$$$$$$$$$$$$$$$$$$$$$$$$$$",
"$$$$$$$$$$$$$$$$$$$$$$$$$$$$$$$$$$$$$$$$$$$$$$$$",
"$$$$$$$$$$$$$$$$$$$$$$$$$$$$$$$$$$$$$$$$$$$$$$$$",
"$$$$$$$$$$$$$$$$$$$$$$$$$$$$$$$$$$$$$$$$$$$$$$$$",
"$$$$$$$$$$$$$$$$$$$$$$$$$$$$$$$$$$$$$$$$$$$$$$$$",
"$$$$$$$$$$$$$$$$$$$$$$$$$$$$$$$$$$$$$$$$$$$$$$$$"
};
