/* XPM */
static char *ground[] = {
/* columns rows colors chars-per-pixel */
"49 48 70 1 ",
"  c #5FB86F",
". c #4DA67F",
"X c #4EAF7B",
"o c #4FAF7B",
"O c #4CA87F",
"+ c #4DAA7E",
"@ c #4FAC7C",
"# c #4EAE7C",
"$ c #5BAF76",
"% c #52AC7B",
"& c #53AC7B",
"* c #57AC79",
"= c #55AF79",
"- c #55AC7A",
"; c #52A87D",
": c #54A97C",
"> c #50AC7C",
", c #55B377",
"< c #56B376",
"1 c #5BB672",
"2 c #5BB772",
"3 c #5FB671",
"4 c #59B375",
"5 c #5DB174",
"6 c #59B475",
"7 c #5DB871",
"8 c #53B178",
"9 c #52B179",
"0 c #50B07A",
"q c #57B078",
"w c #6BBE65",
"e c #61B76F",
"r c #65BA6B",
"t c #63BC6B",
"y c #67BD68",
"u c #66BE68",
"i c #64BD6A",
"p c #62BB6D",
"a c #60B96F",
"s c #65B96C",
"d c #64B86D",
"f c #63BC6C",
"g c #68BC68",
"h c #68BC69",
"j c #60B471",
"k c #60B670",
"l c #6EC35F",
"z c #6FC45E",
"x c #75C955",
"c c #75C856",
"v c #74C857",
"b c #73C758",
"n c #71C65B",
"m c #74C758",
"M c #70C45D",
"N c #71C65C",
"B c #73C858",
"V c #74C858",
"C c #6BC163",
"Z c #6EC161",
"A c #6DC360",
"S c #6CC261",
"D c #6DC361",
"F c #6AC164",
"G c #69C066",
"H c #49A183",
"J c #4CA381",
"K c #4BA581",
"L c #4BA780",
"P c #4CA680",
/* pixels */
"9pNnncBnnBz1tC<991A7 BvvBnBnnz29,,wvC6CBznvvcnnC<",
"CzBcccccvvvlznCCCCnzzvvvvvvvccAFwDzcBlzvvvvvBccnS",
"ccBcBcBcvvvvcvcccvccvvvvvvvvvvvcccvvBvvvvvvvcBcBc",
"cBcBcBcBvvvvvvvvvvvvvvvvvvvvvvvvvvvvvvvvvvvvBcBcc",
"BNBcBcBcvvvvvvvvvvvvvvvvvvvvvvvvvvvvvvvvvvvvvvcvB",
"5ycBcBcBvvvvvvvvvvvvvvvvvvvvvvvvvvvvvvvvvvvvvvvS3",
"PkBcBcBcvvvvvvvvvvvvvvvvvvvvvvvvvvvvvvvvvvvvvvcF;",
",rcBcBcBvvvvvvvvvvvvvvvvvvvvvvvvvvvvvvvvvvvvvvcz<",
"DNmmvvvvvvvvvvvvvvvvvvvvvvvvvvvvvvvvvvvvvvvvnvvNA",
"kksNvvvvvvvvvvvvvvvvvvvvvvvvvvvvvvvvvvvvvvvvvvwjk",
"J;kNvvvvvvvvvvvvvvvvvvvvvvvvvvvvvvvvvvvvvvvvvxy-.",
"#pNmvvvvvvvvvvvvvvvvvvvvvvvvvvvvvvvvvvvvvvvvvvnCq",
"#pccccvvvvvvvvvvvvvvvvvvvvvvvvvvvvvvvvvvvvvvbccC9",
"#4rNccvvvvvvvvvvvvvvvvvvvvvvvvvvvvvvvvvvvvvvvvl39",
"X#-wNvvvvvvvvvvvvvvvvvvvvvvvvvvvvvvvvvvvvvvvbD3O#",
"X>@-wcvvvvvvvvvvvvvvvvvvvvvvvvvvvvvvvvvvvvvvn5;X#",
"XX<rzvvvvvvvvvvvvvvvvvvvvvvvvvvvvvvvvvvvvvvvvw4>X",
"X<fncvvvvvvvvvvvvvvvvvvvvvvvvvvvvvvvvvvvvvvvvvD19",
"XfBvvvvvvvvvvvvvvvvvvvvvvvvvvvvvvvvvvvvvvvvvvvvD,",
"Xfvvvvvvvvvvvvvvvvvvvvvvvvvvvvvvvvvvvvvvvvvvvvvw,",
"hABcvvvvvvvvvvvvvvvvvvvvvvvvvvvvvvvvvvvvvvvvvvvnw",
"CzVBvvvvvvvvvvvvvvvvvvvvvvvvvvvvvvvvvvvvvvvvvvxMC",
",ycBvvvvvvvvvvvvvvvvvvvvvvvvvvvvvvvvvvvvvvvvvvvZ1",
"CzBcvvvvvvvvvvvvvvvvvvvvvvvvvvvvvvvvvvvvvvvvvvvmC",
"ccvvvvxvvvvvvvvvvvvvvvvvvvvvvvvvvvvvvvvvvvvvvvvvv",
"DClnvnvvvvvvvvvvvvvvvvvvvvvvvvvvvvvvvvvvvvvvvvnwD",
";;5Nvvvvvvvvvvvvvvvvvvvvvvvvvvvvvvvvvvvvvvvvvvr-;",
"@4wNvvvvvvvvvvvvvvvvvvvvvvvvvvvvvvvvvvvvvvvvvvleX",
"XrvxvvvvvvvvvvvvvvvvvvvvvvvvvvvvvvvvvvvvvvvvvmcD9",
"9eMvvvvvvvvvvvvvvvvvvvvvvvvvvvvvvvvvvvvvvvvvvvnw,",
"X;4Mvvvvvvvvvvvvvvvvvvvvvvvvvvvvvvvvvvvvvvvvvnr>X",
"#X-$lvvvvvvvvvvvvvvvvvvvvvvvvvvvvvvvvvvvvvvvnsq.>",
"#XX4AccBcVcBcBcBvvvvvvvvvvvvvvvvvvvvvvvvvvvvMe=@X",
">93DnBBcBcBcBcBcvvvvvvvvvvvvvvvvvvvvvvvvvvvvxmr>X",
">3DnBcBccBcBcBcBvvvvvvvvvvvvvvvvvvvvvvvvvvvvccnw9",
"X4gncBcBBcBcBcBcvvvvvvvvvvvvvvvvvvvvvvvvvvvvvNF3X",
"<<5nccBccBcBcBcBvvvvvvvvvvvvvvvvvvvvvvvvvvvvvvr$3",
"nNNBcBcBBcBcBcBcvvvvvvvvvvvvvvvvvvvvvvvvvvvvvvnzl",
"ccBcBcBccBcBcBcBvvvvvvvvvvvvvvvvvvvvvvvvvvvvvvccv",
"yAcBcBcBBcBcBcBcvvvvvvvvvvvvvvvvvvvvvvvvvvvvvvvnw",
"4gvvvvvvcBcBcBcBvvvvvvvvvvvvvvvvcBcBcBcBvvvvvvcD1",
"MMvvvvvvBcBcBcBcvvvvvvvvvvvvvvvvBcBcBcBcvvvvvvBvl",
"vvvvvvvvcBcBcBcBvvvvvvvvvvvvvvnvcBcBcBcBvvvvcBcBv",
"vvvvvvvvBcBcBcBcvvvvvvvvvvvvvvvvBcBcBcBcvvvvBcBcv",
"nBBBcvcvcBcnnnnNMnmnnvvvvvvvBBnMzMmvnnbcvvcNcBcnN",
"4wBBvvvvBcN5wC$-=3MkpbvvvvvvcNk-=$wvz5wcvcccBccD$",
"#6psDvNekwlq6k@PP;p=-rnvDwmwff>KK@ey3>wDp3ABByt3@",
"X>@PwvD;J4z6#X>#X#XX.-NnF,DyX#99XXX##9whJJscn1XXX"
};
