/* XPM */
static char * item_xpm[] = {
"49 48 65 1",
" 	c #52B179",
".	c #62BB6D",
"+	c #71C65C",
"@	c #71C65B",
"#	c #75C856",
"$	c #73C858",
"%	c #6FC45E",
"&	c #5BB672",
"*	c #63BC6B",
"=	c #6BC163",
"-	c #56B376",
";	c #6DC360",
">	c #5DB871",
",	c #5FB86F",
"'	c #74C857",
")	c #5BB772",
"!	c #55B377",
"~	c #6BBE65",
"{	c #59B475",
"]	c #6EC35F",
"^	c #6AC164",
"/	c #6DC361",
"(	c #6CC261",
"_	c #5DB174",
":	c #67BD68",
"<	c #5FB671",
"[	c #4CA680",
"}	c #60B670",
"|	c #52A87D",
"1	c #65BA6B",
"2	c #74C758",
"3	c #65B96C",
"4	c #60B471",
"5	c #4CA381",
"6	c #75C955",
"7	c #55AC7A",
"8	c #4DA67F",
"9	c #4EAE7C",
"0	c #57B078",
"a	c #73C758",
"b	c #59B375",
"c	c #4EAF7B",
"d	c #4CA87F",
"e	c #50AC7C",
"f	c #4FAC7C",
"g	c #202020",
"h	c #FF9439",
"i	c #63BC6C",
"j	c #DE5A39",
"k	c #FFD539",
"l	c #FFFFFF",
"m	c #68BC69",
"n	c #74C858",
"o	c #70C45D",
"p	c #6EC161",
"q	c #9C4A39",
"r	c #4A5252",
"s	c #A4A4C5",
"t	c #7B7B83",
"u	c #61B76F",
"v	c #DECDF6",
"w	c #5BAF76",
"x	c #55AF79",
"y	c #68BC68",
"z	c #4BA581",
" .+@@#$@@$%&*=-  &;>,$''$@$@@%) !!~'={=$%@''#@@=-",
"=%$#####''']%@====@%%'''''''##;^~/%#$]%'''''$##@(",
"##$#$#$#''''#'###'##'''''''''''###''$'''''''#$#$#",
"#$#$#$#$''''''''''''''''''''''''''''''''''''$#$##",
"$+$#$#$#''''''''''''''''''''''''''''''''''''''#'$",
"_:#$#$#$'''''''''''''''''''''''''''''''''''''''(<",
"[}$#$#$#''''''''''''''''''''''''''''''''''''''#^|",
"!1#$#$#$''''''''''''''''''''''''''''''''''''''#%-",
"/+22''''''''''''''''''''''''''''''''''''''''@''+;",
"}}3+''''''''''''''''''''''''''''''''''''''''''~4}",
"5|}+'''''''''''''''''''''''''''''''''''''''''6:78",
"9.+2''''''''''''''''''''''''''''''''''''''''''@=0",
"9.####''''''''''''''''''''''''''''''''''''''a##= ",
"9b1+##'''''''''''''''''''''''''''''''''''''''']< ",
"c97~+'''''''''''''''''''''''''''''''''''''''a/<d9",
"cef7~#'''''''''''''''gggggg'''''''''''''''''@_|c9",
"cc-1%''''''''''''''gghhhhhhgg''''''''''''''''~bec",
"c-i@#'''''''''''''ghhhhhhhhhjg''''''''''''''''/& ",
"ci$''''''''''''''ghkkhhhhhhhhjg''''''''''''''''/!",
"ci''''''''''''''ghkllkhhhhhhhjjg'''''''''''''''~!",
"m;$#''''''''''''ghkllkhhhhhhhjjg'''''''''''''''@~",
"=%n$'''''''''''ghhhkkhhhhhhhhjjjg'''''''''''''6o=",
"!:#$'''''''''''ghhhhhhhhhhhhjjjjg''''''''''''''p&",
"=%$#'''''''''''ghhhhhhhhhhhhjjjjg''''''''''''''2=",
"##''''6''''''''gqhhhhhhhhhhjjjjqg''''''''''''''''",
"/=]@'@'''''''''grqhhrrrhhjjjjjqrg'''''''''''''@~/",
"||_+'''''''''''grrrrslsrjjjqrrrrg'''''''''''''17|",
"fb~+''''''''''''gtrrlllrrrrrrrtg'''''''''''''']uc",
"c1'6''''''''''''gvltslsrrrrrtvsg'''''''''''''2#/ ",
" uo''''''''''''''gvltttvvvvvvsg'''''''''''''''@~!",
"c|bo''''''''''''''gsvvvvvvvssg'''''''''''''''@1ec",
"9c7w]''''''''''''''ggssssssgg'''''''''''''''@308e",
"9ccb;##$#n#$#$#$'''''gggggg'''''''''''''''''ouxfc",
"e </@$$#$#$#$#$#''''''''''''''''''''''''''''621ec",
"e</@$#$##$#$#$#$''''''''''''''''''''''''''''##@~ ",
"cby@#$#$$#$#$#$#'''''''''''''''''''''''''''''+^<c",
"--_@##$##$#$#$#$''''''''''''''''''''''''''''''1w<",
"@++$#$#$$#$#$#$#''''''''''''''''''''''''''''''@%]",
"##$#$#$##$#$#$#$''''''''''''''''''''''''''''''##'",
":;#$#$#$$#$#$#$#'''''''''''''''''''''''''''''''@~",
"by''''''#$#$#$#$''''''''''''''''#$#$#$#$''''''#/&",
"oo''''''$#$#$#$#''''''''''''''''$#$#$#$#''''''$']",
"''''''''#$#$#$#$''''''''''''''@'#$#$#$#$''''#$#$'",
"''''''''$#$#$#$#''''''''''''''''$#$#$#$#''''$#$#'",
"@$$$#'#'#$#@@@@+o@2@@'''''''$$@o%o2'@@a#''#+#$#@+",
"b~$$''''$#+_~=w7x<o}.a''''''#+}7xw~'%_~#'###$##/w",
"9{.3/'+u}~]0{}f[[|.x71@'/~2~iiezzfu:<e~/.<;$$:*<f",
"cef[~'/|5b%{9ce9c9cc87+@^!/:c9  ccc99 ~m553#@&ccc"};
