/* XPM */
static char * player_up_xpm[] = {
"49 48 61 1",
" 	c #52B179",
".	c #62BB6D",
"+	c #71C65C",
"@	c #71C65B",
"#	c #75C856",
"$	c #73C858",
"%	c #6FC45E",
"&	c #5BB672",
"*	c #63BC6B",
"=	c #6BC163",
"-	c #56B376",
";	c #6DC360",
">	c #5DB871",
",	c #5FB86F",
"'	c #74C857",
")	c #5BB772",
"!	c #55B377",
"~	c #6BBE65",
"{	c #59B475",
"]	c #6EC35F",
"^	c #6AC164",
"/	c #6DC361",
"(	c #6CC261",
"_	c #5DB174",
":	c #67BD68",
"<	c #5FB671",
"[	c #4CA680",
"}	c #60B670",
"|	c #52A87D",
"1	c #65BA6B",
"2	c #74C758",
"3	c #915841",
"4	c #65B96C",
"5	c #60B471",
"6	c #4CA381",
"7	c #A0654D",
"8	c #E09669",
"9	c #B56E4B",
"0	c #75C955",
"a	c #55AC7A",
"b	c #4DA67F",
"c	c #4EAE7C",
"d	c #57B078",
"e	c #73C758",
"f	c #59B375",
"g	c #4EAF7B",
"h	c #4CA87F",
"i	c #50AC7C",
"j	c #4FAC7C",
"k	c #63BC6C",
"l	c #68BC69",
"m	c #74C858",
"n	c #70C45D",
"o	c #6EC161",
"p	c #61B76F",
"q	c #CFCCC5",
"r	c #5BAF76",
"s	c #F6C192",
"t	c #55AF79",
"u	c #68BC68",
"v	c #4BA581",
" .+@@#$@@$%&*=-  &;>,$''$@$@@%) !!~'={=$%@''#@@=-",
"=%$#####''']%@====@%%'''''''##;^~/%#$]%'''''$##@(",
"##$#$#$#''''#'###'##'''''''''''###''$'''''''#$#$#",
"#$#$#$#$''''''''''''''''''''''''''''''''''''$#$##",
"$+$#$#$#''''''''''''''''''''''''''''''''''''''#'$",
"_:#$#$#$'''''''''''''''''''''''''''''''''''''''(<",
"[}$#$#$#''''''''''''''''''''''''''''''''''''''#^|",
"!1#$#$#$''''''''''''''''''''''''''''''''''''''#%-",
"/+22''''''''''''''333333333333''''''''''''''@''+;",
"}}4+''''''''''''''333333333333''''''''''''''''~5}",
"6|}+''''''''''''3377889999887733'''''''''''''0:ab",
"c.+2''''''''''''3377889999887733''''''''''''''@=d",
"c.####''''''''33778899999999887733''''''''''e##= ",
"cf1+##''''''''33778899999999887733'''''''''''']< ",
"gca~+'''''''''33998899999999889933''''''''''e/<hc",
"gija~#''''''''33998899999999889933''''''''''@_|gc",
"gg-1%'''''''337799998899998899997733'''''''''~fig",
"g-k@#'''''''337799998899998899997733''''''''''/& ",
"gk$'''''''''337777999999999999777733'''''''''''/!",
"gk''''''''''337777999999999999777733'''''''''''~!",
"l;$#''''''''333377777799997777773333'''''''''''@~",
"=%m$''''''''333377777799997777773333''''''''''0n=",
"!:#$''''''''''33337777777777773333'''''''''''''o&",
"=%$#''''''''''33337777777777773333'''''''''''''2=",
"##''''0'''''''33333333777733333333'''''''''''''''",
"/=]@'@''''''''33333333777733333333''''''''''''@~/",
"||_+''''''''''''3333333333333333''''''''''''''1a|",
"jf~+''''''''''''3333333333333333'''''''''''''']pg",
"g1'0''''''''''99qq333333333333qq99'''''''''''2#/ ",
" pn'''''''''''99qq333333333333qq99''''''''''''@~!",
"g|fn''''''''9988qqqqqqqqqqqqqqqq8899'''''''''@1ig",
"cgar]'''''''9988qqqqqqqqqqqqqqqq8899''''''''@4dbi",
"cggf;##$#m#$99ss88qqqqqqqqqqqq88ss99''''''''nptjg",
"i </@$$#$#$#99ss88qqqqqqqqqqqq88ss99''''''''021ig",
"i</@$#$##$#$#$9999qqqqqqqqqqqq9999''''''''''##@~ ",
"gfu@#$#$$#$#$#9999qqqqqqqqqqqq9999'''''''''''+^<g",
"--_@##$##$#$#$#$9988889999888899''''''''''''''1r<",
"@++$#$#$$#$#$#$#9988889999888899''''''''''''''@%]",
"##$#$#$##$#$#$#$''9999''''9999''''''''''''''''##'",
":;#$#$#$$#$#$#$#''9999''''9999'''''''''''''''''@~",
"fu''''''#$#$#$#$''''''''''''''''#$#$#$#$''''''#/&",
"nn''''''$#$#$#$#''''''''''''''''$#$#$#$#''''''$']",
"''''''''#$#$#$#$''''''''''''''@'#$#$#$#$''''#$#$'",
"''''''''$#$#$#$#''''''''''''''''$#$#$#$#''''$#$#'",
"@$$$#'#'#$#@@@@+n@2@@'''''''$$@n%n2'@@e#''#+#$#@+",
"f~$$''''$#+_~=rat<n}.e''''''#+}atr~'%_~#'###$##/r",
"c{.4/'+p}~]d{}j[[|.ta1@'/~2~kkivvjp:<i~/.<;$$:*<j",
"gij[~'/|6f%{cgicgcggba+@^!/:gc  gggcc ~l664#@&ggg"};
