/* XPM */
static char * player_left_xpm[] = {
"49 48 63 1",
" 	c #52B179",
".	c #62BB6D",
"+	c #71C65C",
"@	c #71C65B",
"#	c #75C856",
"$	c #73C858",
"%	c #6FC45E",
"&	c #5BB672",
"*	c #63BC6B",
"=	c #6BC163",
"-	c #56B376",
";	c #6DC360",
">	c #5DB871",
",	c #5FB86F",
"'	c #74C857",
")	c #5BB772",
"!	c #55B377",
"~	c #6BBE65",
"{	c #59B475",
"]	c #6EC35F",
"^	c #6AC164",
"/	c #6DC361",
"(	c #6CC261",
"_	c #5DB174",
":	c #67BD68",
"<	c #5FB671",
"[	c #4CA680",
"}	c #60B670",
"|	c #52A87D",
"1	c #65BA6B",
"2	c #74C758",
"3	c #915841",
"4	c #65B96C",
"5	c #60B471",
"6	c #4CA381",
"7	c #B56E4B",
"8	c #E09669",
"9	c #75C955",
"0	c #55AC7A",
"a	c #4DA67F",
"b	c #4EAE7C",
"c	c #57B078",
"d	c #73C758",
"e	c #59B375",
"f	c #4EAF7B",
"g	c #A0654D",
"h	c #4CA87F",
"i	c #50AC7C",
"j	c #4FAC7C",
"k	c #63BC6C",
"l	c #68BC69",
"m	c #F1E6D6",
"n	c #74C858",
"o	c #70C45D",
"p	c #412F2F",
"q	c #F6C192",
"r	c #6EC161",
"s	c #61B76F",
"t	c #CFCCC5",
"u	c #5BAF76",
"v	c #55AF79",
"w	c #68BC68",
"x	c #4BA581",
" .+@@#$@@$%&*=-  &;>,$''$@$@@%) !!~'={=$%@''#@@=-",
"=%$#####''']%@====@%%'''''''##;^~/%#$]%'''''$##@(",
"##$#$#$#''''#'###'##'''''''''''###''$'''''''#$#$#",
"#$#$#$#$''''''''''''''''''''''''''''''''''''$#$##",
"$+$#$#$#''''''''''''''''''''''''''''''''''''''#'$",
"_:#$#$#$'''''''''''''''''''''''''''''''''''''''(<",
"[}$#$#$#''''''''''''''''''''''''''''''''''''''#^|",
"!1#$#$#$''''''''''''''''''''''''''''''''''''''#%-",
"/+22''''''''''''''''3333333333''''''''''''''@''+;",
"}}4+''''''''''''''''3333333333''''''''''''''''~5}",
"6|}+''''''''''''''33777777887733'''''''''''''9:0a",
"b.+2''''''''''''''33777777887733''''''''''''''@=c",
"b.####''''''''''337777777777887733''''''''''d##= ",
"be1+##''''''''''337777777777887733'''''''''''']< ",
"fb0~+'''''''''33gg77887777778877gg33''''''''d/<hb",
"fij0~#''''''''33gg77887777778877gg33''''''''@_|fb",
"ff-1%'''''''''33gggg778888887777gg33'''''''''~eif",
"f-k@#'''''''''33gggg778888887777gg33''''''''''/& ",
"fk$'''''''''''3333333377777777gggg33'''''''''''/!",
"fk''''''''''''3333333377777777gggg33'''''''''''~!",
"l;$#''''''''''''8833mm33gggggggggg33'''''''''''@~",
"=%n$''''''''''''8833mm33gggggggggg33''''''''''9o=",
"!:#$''''''''''''88ppqq33gggggggggg33'''''''''''r&",
"=%$#''''''''''''88ppqq33gggggggggg33'''''''''''2=",
"##''''9'''''''''88qqqqqq33gggggg33'''''''''''''''",
"/=]@'@''''''''''88qqqqqq33gggggg33''''''''''''@~/",
"||_+''''''''''''''88888877333333''''''''''''''10|",
"je~+''''''''''''''88888877333333'''''''''''''']sf",
"f1'9''''''''''''''''7777tttt77'''''''''''''''2#/ ",
" so'''''''''''''''''7777tttt77''''''''''''''''@~!",
"f|eo''''''''''''''77tttttttttt77'''''''''''''@1if",
"bf0u]'''''''''''''77tttttttttt77''''''''''''@4cai",
"bffe;##$#n#$#$#$''7788tt77tttt77''''''''''''osvjf",
"i </@$$#$#$#$#$#''7788tt77tttt77''''''''''''921if",
"i</@$#$##$#$#$#$''77qq8877tttt77''''''''''''##@~ ",
"few@#$#$$#$#$#$#''77qq8877tttt77'''''''''''''+^<f",
"--_@##$##$#$#$#$''''7777888877''''''''''''''''1u<",
"@++$#$#$$#$#$#$#''''7777888877''''''''''''''''@%]",
"##$#$#$##$#$#$#$''''''777777''''''''''''''''''##'",
":;#$#$#$$#$#$#$#''''''777777'''''''''''''''''''@~",
"ew''''''#$#$#$#$''''''''''''''''#$#$#$#$''''''#/&",
"oo''''''$#$#$#$#''''''''''''''''$#$#$#$#''''''$']",
"''''''''#$#$#$#$''''''''''''''@'#$#$#$#$''''#$#$'",
"''''''''$#$#$#$#''''''''''''''''$#$#$#$#''''$#$#'",
"@$$$#'#'#$#@@@@+o@2@@'''''''$$@o%o2'@@d#''#+#$#@+",
"e~$$''''$#+_~=u0v<o}.d''''''#+}0vu~'%_~#'###$##/u",
"b{.4/'+s}~]c{}j[[|.v01@'/~2~kkixxjs:<i~/.<;$$:*<j",
"fij[~'/|6e%{bfibfbffa0+@^!/:fb  fffbb ~l664#@&fff"};
