/* XPM */
static char * player_left_xpm[] = {
"49 48 720 2",
"  	c #52B179",
". 	c #62BB6D",
"+ 	c #71C65C",
"@ 	c #71C65B",
"# 	c #75C856",
"$ 	c #73C858",
"% 	c #6FC45E",
"& 	c #5BB672",
"* 	c #63BC6B",
"= 	c #6BC163",
"- 	c #56B376",
"; 	c #6DC360",
"> 	c #5DB871",
", 	c #62B26C",
"' 	c #74BE55",
") 	c #75BE54",
"! 	c #73BC58",
"~ 	c #71BA5A",
"{ 	c #60AE6D",
"] 	c #54AF78",
"^ 	c #55B377",
"/ 	c #6BBE65",
"( 	c #74C857",
"_ 	c #59B475",
": 	c #6EC35F",
"< 	c #787F48",
"[ 	c #7D2737",
"} 	c #7D2E37",
"| 	c #7D2436",
"1 	c #6FAA5B",
"2 	c #6DC361",
"3 	c #6CC261",
"4 	c #76C254",
"5 	c #77AE50",
"6 	c #78AE4F",
"7 	c #76B04F",
"8 	c #987542",
"9 	c #A63838",
"0 	c #869B4A",
"a 	c #77AF4F",
"b 	c #76B251",
"c 	c #74C757",
"d 	c #76B050",
"e 	c #7B1E36",
"f 	c #771B36",
"g 	c #D04E3B",
"h 	c #F05E3D",
"i 	c #EF5E3D",
"j 	c #A43738",
"k 	c #7A1D36",
"l 	c #7A4A3A",
"m 	c #75C456",
"n 	c #789A4A",
"o 	c #8F8846",
"p 	c #BE4539",
"q 	c #BD4539",
"r 	c #BC4439",
"s 	c #DE553C",
"t 	c #EE5D3D",
"u 	c #EF5D3D",
"v 	c #CC4C3A",
"w 	c #B8533B",
"x 	c #7B9649",
"y 	c #78A64D",
"z 	c #5DB174",
"A 	c #67BD68",
"B 	c #76C055",
"C 	c #7C2236",
"D 	c #A53838",
"E 	c #F15E3D",
"F 	c #E6593C",
"G 	c #812336",
"H 	c #7B6E40",
"I 	c #5FB671",
"J 	c #4CA680",
"K 	c #60B670",
"L 	c #73C756",
"M 	c #4B8437",
"N 	c #567331",
"O 	c #A72D30",
"P 	c #BE3C34",
"Q 	c #E8593C",
"R 	c #AB2C31",
"S 	c #964931",
"T 	c #437731",
"U 	c #5DA345",
"V 	c #6AC164",
"W 	c #52A87D",
"X 	c #65BA6B",
"Y 	c #73C656",
"Z 	c #244519",
"` 	c #410A0A",
" .	c #B72D2D",
"..	c #C83E32",
"+.	c #ED5D3D",
"@.	c #E9593C",
"#.	c #BB302E",
"$.	c #A22727",
"%.	c #000000",
"&.	c #4F8B3A",
"*.	c #74C758",
"=.	c #26471A",
"-.	c #190709",
";.	c #53242B",
">.	c #5C2C30",
",.	c #6F3C39",
"'.	c #65302B",
").	c #C0492F",
"!.	c #BB302F",
"~.	c #A12727",
"{.	c #4F8C3A",
"].	c #65B96C",
"^.	c #71C354",
"/.	c #6FBF53",
"(.	c #3E5340",
"_.	c #4F4B5B",
":.	c #ADA5C5",
"<.	c #BCB7D2",
"[.	c #DEDEEF",
"}.	c #ABADBB",
"|.	c #B24B39",
"1.	c #E75A3A",
"2.	c #EC5C3C",
"3.	c #A22728",
"4.	c #190308",
"5.	c #518739",
"6.	c #71C254",
"7.	c #72C656",
"8.	c #60B471",
"9.	c #4CA381",
"0.	c #40732F",
"a.	c #233224",
"b.	c #A59CBD",
"c.	c #B4ADCD",
"d.	c #E2E2F4",
"e.	c #E4E3F6",
"f.	c #E5E5F7",
"g.	c #ADAAB7",
"h.	c #413134",
"i.	c #D15033",
"j.	c #AC2B30",
"k.	c #7B1F35",
"l.	c #5E2528",
"m.	c #0D1F07",
"n.	c #60A647",
"o.	c #75C955",
"p.	c #55AC7A",
"q.	c #4DA67F",
"r.	c #4EAE7C",
"s.	c #75C155",
"t.	c #76B451",
"u.	c #77B552",
"v.	c #3D6128",
"w.	c #1D1C22",
"x.	c #B5AFCC",
"y.	c #C4BEDB",
"z.	c #E6E6F8",
"A.	c #E5E5F8",
"B.	c #8C8E9A",
"C.	c #CF4C2C",
"D.	c #E5563A",
"E.	c #DF5239",
"F.	c #B02D30",
"G.	c #A12931",
"H.	c #722035",
"I.	c #561626",
"J.	c #5EA446",
"K.	c #57B078",
"L.	c #77A64C",
"M.	c #7D1830",
"N.	c #7E1930",
"O.	c #420815",
"P.	c #1C1E21",
"Q.	c #B7B9C8",
"R.	c #C1C3D2",
"S.	c #C1C2D2",
"T.	c #C1C2D1",
"U.	c #D0D0E0",
"V.	c #E7E7F9",
"W.	c #8C8F9B",
"X.	c #D04D2C",
"Y.	c #BF3530",
"Z.	c #B32C2F",
"`.	c #802036",
" +	c #6F2034",
".+	c #23202E",
"++	c #1B1621",
"@+	c #73C758",
"#+	c #59B375",
"$+	c #76C154",
"%+	c #78A04B",
"&+	c #839169",
"*+	c #96728D",
"=+	c #95728D",
"-+	c #96738E",
";+	c #4F3B4A",
">+	c #130000",
",+	c #942E06",
"'+	c #9C3106",
")+	c #9D3107",
"!+	c #851A00",
"~+	c #8C8D99",
"{+	c #8D8F9B",
"]+	c #BE3E26",
"^+	c #DB4E38",
"/+	c #DA4E37",
"(+	c #DA4D37",
"_+	c #BD332F",
":+	c #B22D2F",
"<+	c #6A2033",
"[+	c #6E2232",
"}+	c #81272E",
"|+	c #601B21",
"1+	c #4EAF7B",
"2+	c #76B952",
"3+	c #7C0926",
"4+	c #916983",
"5+	c #B1A9CD",
"6+	c #B1A8CC",
"7+	c #B2A9CD",
"8+	c #5F5A6E",
"9+	c #260300",
"0+	c #E65A3B",
"a+	c #F25F3E",
"b+	c #F15E3E",
"c+	c #D14D2C",
"d+	c #8E8F9B",
"e+	c #9F1B1A",
"f+	c #B82D2E",
"g+	c #B82C2E",
"h+	c #B92E2E",
"i+	c #B02D2E",
"j+	c #2F202E",
"k+	c #6A242E",
"l+	c #BD2F2E",
"m+	c #8E2121",
"n+	c #4CA87F",
"o+	c #50AC7C",
"p+	c #4FAC7C",
"q+	c #777E4C",
"r+	c #828560",
"s+	c #9F87A5",
"t+	c #B4A6C0",
"u+	c #D4D1E8",
"v+	c #D3D0E7",
"w+	c #D4D1E9",
"x+	c #72717E",
"y+	c #100000",
"z+	c #933722",
"A+	c #A73F28",
"B+	c #A01D1A",
"C+	c #832432",
"D+	c #BB2F2E",
"E+	c #8D2121",
"F+	c #7E2036",
"G+	c #895168",
"H+	c #C6C1DD",
"I+	c #E6E7F8",
"J+	c #E6E6F7",
"K+	c #7C7C86",
"L+	c #531B0F",
"M+	c #EC5C3D",
"N+	c #D04C2C",
"O+	c #B42D2F",
"P+	c #912434",
"Q+	c #8D2120",
"R+	c #5FA546",
"S+	c #63BC6C",
"T+	c #895167",
"U+	c #B0A7CA",
"V+	c #C5C0DC",
"W+	c #D5D5E6",
"X+	c #CDCDDD",
"Y+	c #4B4B51",
"Z+	c #270C09",
"`+	c #76342B",
" @	c #65281E",
".@	c #91919D",
"+@	c #8D8E9A",
"@@	c #A01D1B",
"#@	c #B82E2E",
"$@	c #B02C30",
"%@	c #9F2C35",
"&@	c #5F2D41",
"*@	c #4D2A3F",
"=@	c #25273D",
"-@	c #30512F",
";@	c #345F26",
">@	c #6CBB51",
",@	c #7E3B38",
"'@	c #885A66",
")@	c #AEA3C6",
"!@	c #C3BDD8",
"~@	c #E3E2F5",
"{@	c #E3E3F5",
"]@	c #E0E0F3",
"^@	c #5B5A64",
"/@	c #4C4C53",
"(@	c #D1D1E1",
"_@	c #D8D8E9",
":@	c #DDDDEE",
"<@	c #ABABB9",
"[@	c #332B2F",
"}@	c #A32626",
"|@	c #B52E2F",
"1@	c #9F2D36",
"2@	c #252C44",
"3@	c #2C2C44",
"4@	c #2D2D45",
"5@	c #181827",
"6@	c #6AB74F",
"7@	c #75C255",
"8@	c #77B354",
"9@	c #82364B",
"0@	c #97748D",
"a@	c #B6AFD0",
"b@	c #B5ADCE",
"c@	c #A89FC0",
"d@	c #312E38",
"e@	c #72727C",
"f@	c #DBDBEC",
"g@	c #DCDDEE",
"h@	c #9D99A5",
"i@	c #95110C",
"j@	c #B12E31",
"k@	c #492C42",
"l@	c #3E2C43",
"m@	c #2C2C45",
"n@	c #68BC69",
"o@	c #76BA53",
"p@	c #7C5C3A",
"q@	c #8E787D",
"r@	c #AA9CBD",
"s@	c #AA9BBC",
"t@	c #A697B7",
"u@	c #442935",
"v@	c #38131B",
"w@	c #442C33",
"x@	c #3A2E32",
"y@	c #872E2D",
"z@	c #BE6464",
"A@	c #C67676",
"B@	c #B34442",
"C@	c #AE312E",
"D@	c #AB2B2D",
"E@	c #AB2C2E",
"F@	c #AB2E32",
"G@	c #AB2E33",
"H@	c #AB2C2F",
"I@	c #AA2B2D",
"J@	c #AB2D31",
"K@	c #A32D35",
"L@	c #342C44",
"M@	c #202131",
"N@	c #171821",
"O@	c #61A94A",
"P@	c #6AB850",
"Q@	c #74C858",
"R@	c #78A54D",
"S@	c #7E2137",
"T@	c #7E1F36",
"U@	c #7C1733",
"V@	c #7C1533",
"W@	c #712E31",
"X@	c #59341C",
"Y@	c #D3CFCE",
"Z@	c #F9F9F9",
"`@	c #8B7E79",
" #	c #5B3C2E",
".#	c #1C1B27",
"+#	c #181C2D",
"@#	c #2D2C44",
"##	c #202236",
"$#	c #0E1624",
"%#	c #28283E",
"&#	c #3A3C51",
"*#	c #404356",
"=#	c #181A23",
"-#	c #70C45D",
";#	c #7B7C43",
">#	c #7B7E44",
",#	c #7B7D43",
"'#	c #753E36",
")#	c #7E3F40",
"!#	c #B48278",
"~#	c #B58379",
"{#	c #B68479",
"]#	c #92695F",
"^#	c #401C00",
"/#	c #D1CECE",
"(#	c #AB9184",
"_#	c #90664C",
":#	c #29232A",
"<#	c #141A2B",
"[#	c #24263B",
"}#	c #27283F",
"|#	c #1B1F32",
"1#	c #222539",
"2#	c #25263C",
"3#	c #2B2B43",
"4#	c #222236",
"5#	c #2E3041",
"6#	c #333646",
"7#	c #437337",
"8#	c #457B33",
"9#	c #6EC161",
"0#	c #5E5C34",
"a#	c #7B5E4F",
"b#	c #F7D0B8",
"c#	c #FAD2BA",
"d#	c #FCD3BB",
"e#	c #BE9F8C",
"f#	c #CCCDCD",
"g#	c #F9FAFA",
"h#	c #D9AF96",
"i#	c #CC956E",
"j#	c #31282C",
"k#	c #000B23",
"l#	c #0C1625",
"m#	c #1C2033",
"n#	c #181D2F",
"o#	c #0D1625",
"p#	c #2A2A41",
"q#	c #1F1F32",
"r#	c #6BB950",
"s#	c #76C757",
"t#	c #A5865A",
"u#	c #B5886A",
"v#	c #F6CEB6",
"w#	c #F8D0B8",
"x#	c #F9D1B9",
"y#	c #E1BCA6",
"z#	c #BC9C89",
"A#	c #E6CFC2",
"B#	c #F9E4D8",
"C#	c #D8A98A",
"D#	c #CD966F",
"E#	c #A3775A",
"F#	c #926B52",
"G#	c #0E1726",
"H#	c #151B2C",
"I#	c #1F2236",
"J#	c #212438",
"K#	c #222439",
"L#	c #2A2A42",
"M#	c #1C1C2D",
"N#	c #1B1B2D",
"O#	c #3F6C37",
"P#	c #589B42",
"Q#	c #589941",
"R#	c #70C154",
"S#	c #77C758",
"T#	c #CA9E6F",
"U#	c #D6A07B",
"V#	c #F8D1B9",
"W#	c #FAD2B9",
"X#	c #F9D0B8",
"Y#	c #F8D0B7",
"Z#	c #D9A581",
"`#	c #D19971",
" $	c #D39A71",
".$	c #C18D69",
"+$	c #0D1725",
"@$	c #0B1624",
"#$	c #27283E",
"$$	c #292940",
"%$	c #508D3B",
"&$	c #75C857",
"*$	c #8FBF5D",
"=$	c #93B85F",
"-$	c #997D69",
";$	c #AE8872",
">$	c #DBA886",
",$	c #E9BC9F",
"'$	c #F9D1BA",
")$	c #E6B89B",
"!$	c #8B6954",
"~$	c #705242",
"{$	c #674D42",
"]$	c #191A2A",
"^$	c #131321",
"/$	c #26263B",
"($	c #71BF54",
"_$	c #5F4D31",
":$	c #886346",
"<$	c #CD956D",
"[$	c #E0B294",
"}$	c #F6CFB8",
"|$	c #DDAC8D",
"1$	c #5E463B",
"2$	c #051425",
"3$	c #071525",
"4$	c #121A2C",
"5$	c #2C2C43",
"6$	c #2B2C43",
"7$	c #192422",
"8$	c #10220B",
"9$	c #2A2B3F",
"0$	c #262A3A",
"a$	c #071404",
"b$	c #518E3C",
"c$	c #61B76F",
"d$	c #72C054",
"e$	c #69A94B",
"f$	c #473122",
"g$	c #4E3C31",
"h$	c #56473E",
"i$	c #694C3C",
"j$	c #724F3A",
"k$	c #312018",
"l$	c #02040A",
"m$	c #0F1827",
"n$	c #131A2A",
"o$	c #101523",
"p$	c #080811",
"q$	c #162818",
"r$	c #61A949",
"s$	c #6DBD52",
"t$	c #264520",
"u$	c #3A682D",
"v$	c #6FC053",
"w$	c #71C355",
"x$	c #67B24D",
"y$	c #27481B",
"z$	c #294C1D",
"A$	c #4C4228",
"B$	c #5A3C2D",
"C$	c #595559",
"D$	c #57575F",
"E$	c #1A2A48",
"F$	c #0E2242",
"G$	c #0D1523",
"H$	c #09172E",
"I$	c #031A3D",
"J$	c #18342C",
"K$	c #5FA647",
"L$	c #366126",
"M$	c #284B1C",
"N$	c #467D33",
"O$	c #467C33",
"P$	c #D4D3E2",
"Q$	c #E1E1F3",
"R$	c #4162A8",
"S$	c #0F4993",
"T$	c #082F63",
"U$	c #26619F",
"V$	c #5FA978",
"W$	c #488035",
"X$	c #6EBF53",
"Y$	c #5BAF76",
"Z$	c #6DBC51",
"`$	c #63AD4A",
" %	c #7A947B",
".%	c #85858E",
"+%	c #BEC1D7",
"@%	c #C3C7E0",
"#%	c #566DA0",
"$%	c #415C91",
"%%	c #072A5A",
"&%	c #0A366F",
"*%	c #519478",
"=%	c #579840",
"-%	c #C0C0CE",
";%	c #EBEBFB",
">%	c #687CB5",
",%	c #074E9F",
"'%	c #798285",
")%	c #727D89",
"!%	c #0650A4",
"~%	c #043F85",
"{%	c #3D6D2C",
"]%	c #55AF79",
"^%	c #5C9B47",
"/%	c #191914",
"(%	c #C1C1CE",
"_%	c #EBEAFA",
":%	c #848FAC",
"<%	c #5D7094",
"[%	c #868F91",
"}%	c #848D93",
"|%	c #6C7EA0",
"1%	c #576682",
"2%	c #629F4F",
"3%	c #373735",
"4%	c #C3C3D0",
"5%	c #B5BBD9",
"6%	c #838C94",
"7%	c #7F8786",
"8%	c #929C9C",
"9%	c #949D9D",
"0%	c #979F9D",
"a%	c #7B8280",
"b%	c #467783",
"c%	c #6FBD7F",
"d%	c #68BC68",
"e%	c #41742F",
"f%	c #365D30",
"g%	c #021B1F",
"h%	c #C2C2CF",
"i%	c #808EBE",
"j%	c #424C61",
"k%	c #575450",
"l%	c #B28A74",
"m%	c #AA8778",
"n%	c #576582",
"o%	c #475677",
"p%	c #052C5F",
"q%	c #203B6F",
"r%	c #396453",
"s%	c #64AE4B",
"t%	c #001319",
"u%	c #00000D",
"v%	c #C1C2CF",
"w%	c #8290BF",
"x%	c #162347",
"y%	c #3C2717",
"z%	c #BD825A",
"A%	c #B27C61",
"B%	c #0A3672",
"C%	c #0C3773",
"D%	c #113975",
"E%	c #07244E",
"F%	c #65AF4B",
"G%	c #011419",
"H%	c #3A425E",
"I%	c #454246",
"J%	c #63514E",
"K%	c #5B4B49",
"L%	c #020F27",
"M%	c #093166",
"N%	c #14509F",
"O%	c #0A346C",
"P%	c #63AC4A",
"Q%	c #031822",
"R%	c #000F25",
"S%	c #C1C2D0",
"T%	c #3D4460",
"U%	c #454349",
"V%	c #3E3D42",
"W%	c #092F62",
"X%	c #1752A2",
"Y%	c #0C366E",
"Z%	c #6CBA50",
"`%	c #16314F",
" &	c #084270",
".&	c #C2C5D7",
"+&	c #2D3453",
"@&	c #352F2F",
"#&	c #302A2B",
"$&	c #132C48",
"%&	c #254D79",
"&&	c #163251",
"*&	c #68B54E",
"=&	c #386528",
"-&	c #31594D",
";&	c #063962",
">&	c #C2C4D5",
",&	c #838FBA",
"'&	c #262F4B",
")&	c #2D2828",
"!&	c #29272B",
"~&	c #0E2239",
"{&	c #16304D",
"]&	c #204369",
"^&	c #30584D",
"/&	c #5A9941",
"(&	c #C3C2CF",
"_&	c #858FA8",
":&	c #001428",
"<&	c #071A2B",
"[&	c #254C76",
"}&	c #1D3C60",
"|&	c #589A41",
"1&	c #66AF4C",
"2&	c #4D8839",
"3&	c #9DA9A4",
"4&	c #686F81",
"5&	c #2C4A83",
"6&	c #304E8A",
"7&	c #2F4D87",
"8&	c #254B76",
"9&	c #1D3C5F",
"0&	c #579941",
"a&	c #477E34",
"b&	c #190900",
"c&	c #476DBD",
"d&	c #4D77CF",
"e&	c #4C77CF",
"f&	c #4771C2",
"g&	c #254C77",
"h&	c #1D3D60",
"i&	c #467C37",
"j&	c #100A04",
"k&	c #294276",
"l&	c #2E4981",
"m&	c #3E5488",
"n&	c #3B5080",
"o&	c #22344D",
"p&	c #1A293E",
"q&	c #569941",
"r&	c #3B7442",
"s&	c #050100",
"t&	c #353435",
"u&	c #343333",
"v&	c #201E1E",
"w&	c #181716",
"x&	c #559745",
"y&	c #50A373",
"z&	c #5CAA61",
"A&	c #2B5121",
"B&	c #010102",
"C&	c #131315",
"D&	c #121214",
"E&	c #090809",
"F&	c #3B6C38",
"G&	c #5BAD63",
"H&	c #5FB568",
"I&	c #4BA581",
"J&	c #305A26",
"K&	c #3E763E",
"  . + @ @ # $ @ @ $ % & * = -     & ; > , ' ) ) ' ! ' ! ! ~ { ] ^ ^ / ( = _ = $ % @ ( ( # @ @ = - ",
"= % $ # # # # # ( ( ( : % @ = = = = @ % < [ } } } } } } } } | 1 / 2 % # $ : % ( ( ( ( ( $ # # @ 3 ",
"# # $ # $ # $ # ( ( ( ( # ( # # 4 5 6 7 8 9 9 9 9 9 9 9 9 9 9 0 a 6 b c $ ( ( ( ( ( ( ( # $ # $ # ",
"# $ # $ # $ # $ ( ( ( ( ( ( ( ( d e e f g h i i i i i i i i h j k e l c ( ( ( ( ( ( ( ( $ # $ # # ",
"$ + $ # $ # $ # ( ( ( ( ( ( m n o p q r s t t t t t t t t t u v q q w x y ( ( ( ( ( ( ( ( ( # ( $ ",
"z A # $ # $ # $ ( ( ( ( ( ( B C D E h h u t t t t t t t t t t i h h F G H ( ( ( ( ( ( ( ( ( ( 3 I ",
"J K $ # $ # $ # ( ( ( ( L M N O P u t t t t t t t t t t t t t t t t Q R S T U ( ( ( ( ( ( ( # V W ",
"^ X # $ # $ # $ ( ( ( ( Y Z `  ...t +.t t t t t t t t t t t t t t t @.#.$.%.&.( ( ( ( ( ( ( # % - ",
"2 + *.*.( ( ( ( ( ( ( ( Y =.-.;.>.,.'.).i t t t t t t t t t t t t t @.!.~.%.{.( ( ( ( ( @ ( ( + ; ",
"K K ].+ ( ( ( ( ( ( ( ^./.(._.:.<.[.}.|.1.2.t t t t t t t t t t t t @.!.3.4.5.6.7.( ( ( ( ( / 8.K ",
"9.W K + ( ( ( ( ( ( ( 0.a.b.c.d.e.f.f.g.h.i.t t t t t t t t t t t t @.#.j.k.l.m.n.( ( ( ( o.A p.q.",
"r.. + *.( ( ( s.t.t.u.v.w.x.y.f.z.A.f.z.B.C.t t t t t t t t t t t D.E.F.G.H.I.%.J.( ( ( ( ( @ = K.",
"r.. # # # # ( L.M.M.N.O.P.Q.R.S.T.U.z.V.W.X.i u u u u u u u u u t Y.Z.`. +.+++%.J.( ( ( @+# # =   ",
"r.#+X + # $+%+&+*+=+-+;+>+,+'+)+!+~+V.V.{+]+^+/+/+/+/+/+/+/+/+/+(+_+:+<+[+}+|+%.J.( ( ( ( ( : I   ",
"1+r.p./ + 2+3+4+5+6+7+8+9+0+a+b+c+W.V.V.d+e+f+g+g+g+g+g+g+g+g+g+g+h+i+j+k+l+m+%.J.( ( ( @+2 I n+r.",
"1+o+p+p.q+r+s+t+u+v+w+x+y+z+A++.C.W.V.V.d+B+h+h+h+h+h+h+h+h+h+h+h+h+:+<+C+D+E+%.J.( ( ( @ z W 1+r.",
"1+1+- X F+G+6+H+I+J+V.K+%.%.L+M+N+W.V.V.d+B+h+h+h+h+h+h+h+h+h+h+h+h+O+`.P+D+Q+%.R+( ( ( ( / #+o+1+",
"1+- S+@ F+T+U+V+z.f.f.W+X+Y+Z+`+ @.@V.z.+@@@h+h+h+h+h+h+h+h+h+h+h+h+#@$@%@&@*@=@-@;@>@( ( ( 2 &   ",
"1+S+$ ( ,@'@)@!@e.~@~@{@]@^@/@(@_@:@V.<@[@}@h+h+h+h+h+h+h+h+h+h+h+h+h+|@1@2@3@4@5@%.6@( ( ( ( 2 ^ ",
"1+S+( ( 7@8@9@0@a@b@b@b@b@c@d@e@f@f@g@h@i@#@h+h+h+h+h+h+h+h+h+h+h+h+j@k@l@3@3@m@5@%.6@( ( ( ( / ^ ",
"n@; $ # ( o@p@q@r@s@s@s@s@t@u@v@w@w@x@y@z@A@B@C@D@E@F@F@G@H@I@J@F@F@K@L@3@3@3@m@M@N@O@P@( ( ( @ / ",
"= % Q@$ ( ( ( R@S@S@S@S@S@S@T@U@U@V@W@X@Y@Z@`@ #.#+#@#@#@###$#%#@#@#@#3@3@3@3@3@&#*#=#%.( ( o.-#= ",
"^ A # $ ( ( ( b ;#>#>#>#,#'#)#!#~#{#]#^#/#Z@(#_#:#<#[#}#3@[#|#1#2#3#3@3@3@3@%#4#5#6#7#8#( ( ( 9#& ",
"= % $ # ( ( ( ( ( ( ( ( ( 0#a#b#c#d#e#%.f#g#h#i#j#k#l#m#4@4@4@n#o#p#3@m@m@4@q#%.%.%.r#( ( ( ( *.= ",
"# # ( ( ( ( o.( ( ( ( ( s#t#u#v#w#x#y#z#A#B#C#D#E#F#G#H#I#I#I#J#K#3#L#M#N#M#O#P#Q#Q#R#( ( ( ( ( ( ",
"2 = : @ ( @ ( ( ( ( ( ( S#T#U#w#x#V#x#W#X#Y#Z#`# $.$+$o#l#l#@$#$4@3@$$%.%.%.%$( ( ( ( ( ( ( @ / 2 ",
"W W z + ( ( ( ( ( ( ( ( &$*$=$-$;$>$,$'$)$>$!$~$~${$#$#$#$#$#$]$^$p#3#/$q#%.{.( ( ( ( ( ( ( X p.W ",
"p+#+/ + ( ( ( ( ( ( ( ( ( ( ($_$:$<$[$}$|$<$1$2$3$4$5$6$3#3#3@7$8$9$3#5$0$a$b$( ( ( ( ( ( ( : c$1+",
"1+X ( o.( ( ( ( ( ( ( ( ( ( c d$e$f$g$h$i$j$k$l$o#m$n$o$p$p$q$r$s$t$p$p$u$v$w$( ( ( ( ( ( *.# 2   ",
"  c$-#( ( ( ( ( ( ( ( ( ( ( ( ( x$y$z$z$A$B$C$D$E$F$G$H$I$J$K$( s$L$z$M$N$( ( ( ( ( ( ( ( ( @ / ^ ",
"1+W #+-#( ( ( ( ( ( ( ( ( ( ( ( ( L L ( O$%.P$Q$R$S$%.T$U$V$( ( W$X$L L L ( ( ( ( ( ( ( ( @ X o+1+",
"r.1+p.Y$: ( ( ( ( ( ( ( ( ( ( ( ( ( Z$`$ %.%+%@%#%$%%%&%*%( ( ( ( ( ( ( ( ( ( ( ( ( ( ( @ ].K.q.o+",
"r.1+1+#+; # # $ # Q@# $ # $ # $ ( ( =%%.-%;%>%,%'%)%!%~%{%r#( ( ( ( ( ( ( ( ( ( ( ( ( ( -#c$]%p+1+",
"o+  I 2 @ $ $ # $ # $ # $ # $ # ( ( ^%/%(%_%:%<%[%}%|%1%%.Q#( ( ( ( ( ( ( ( ( ( ( ( ( ( o.*.X o+1+",
"o+I 2 @ $ # $ # # $ # $ # $ # $ ( ( 2%3%4%5%6%7%8%9%0%a%%.b%c%( ( ( ( ( ( ( ( ( ( ( ( ( # # @ /   ",
"1+#+d%@ # $ # $ $ # $ # $ # $ # 6@e%f%g%h%i%j%k%l%m%n%o%p%q%r%6@( ( ( ( ( ( ( ( ( ( ( ( ( + V I 1+",
"- - z @ # # $ # # $ # $ # $ # $ s%%.t%u%v%w%x%y%z%A%B%C%D%E%%.s%( ( ( ( ( ( ( ( ( ( ( ( ( ( X Y$I ",
"@ + + $ # $ # $ $ # $ # $ # $ # F%%.G%u%v%w%H%I%J%K%L%M%N%O%%.P%( ( ( ( ( ( ( ( ( ( ( ( ( ( @ % : ",
"# # $ # $ # $ # # $ # $ # $ # $ F%%.Q%R%S%w%T%U%U%V%%.W%X%Y%%.M$Z%( ( ( ( ( ( ( ( ( ( ( ( ( # # ( ",
"A ; # $ # $ # $ $ # $ # $ # $ # s%%.`% &.&w%+&@&@&#&%.$&%&&&%.P%( ( ( ( ( ( ( ( ( ( ( ( ( ( ( @ / ",
"#+d%( ( ( ( ( ( # $ # $ # $ # $ *&=&-&;&>&,&'&)&)&!&~&{&]&^&=&*&# $ # $ # $ # $ ( ( ( ( ( ( # 2 & ",
"-#-#( ( ( ( ( ( $ # $ # $ # $ # ( ( /&%.(&_&:&%.%.<&[&}&%.|&( ( $ # $ # $ # $ # ( ( ( ( ( ( $ ( : ",
"( ( ( ( ( ( ( ( # $ # $ # $ # $ ( ( 1&2&3&4&5&6&6&7&8&9&%.0&@ ( # $ # $ # $ # $ ( ( ( ( # $ # $ ( ",
"( ( ( ( ( ( ( ( $ # $ # $ # $ # ( ( ( ( a&b&c&d&e&f&g&h&%.0&( ( $ # $ # $ # $ # ( ( ( ( $ # $ # ( ",
"@ $ $ $ # ( # ( # $ # @ @ @ @ + -#@ *.@ i&j&k&l&m&n&o&p&%.q&@ -#% -#*.( @ @ @+# ( ( # + # $ # @ + ",
"#+/ $ $ ( ( ( ( $ # + z / = Y$p.]%I -#K r&%.%.s&t&u&v&w&%.x&K p.]%Y$/ ( % z / # ( # # # $ # # 2 Y$",
"r._ . ].2 ( + c$K / : K._ K p+J J W . ]%y&z&A&B&C&D&E&F&G&H&o+I&I&p+c$A I o+/ 2 . I ; $ $ A * I p+",
"1+o+p+J / ( 2 W 9.#+% _ r.1+o+r.1+r.1+1+q.p.J&%.%.%.%.K&1+r.    1+1+1+r.r.  / n@9.9.].# @ & 1+1+1+"};
