/* XPM */
static char * player_up_xpm[] = {
"49 48 484 2",
"  	c #52B179",
". 	c #62BB6D",
"+ 	c #71C65C",
"@ 	c #71C65B",
"# 	c #75C856",
"$ 	c #73C858",
"% 	c #6FC45E",
"& 	c #5BB672",
"* 	c #63BC6B",
"= 	c #6BC163",
"- 	c #56B376",
"; 	c #5D9E53",
"> 	c #382838",
", 	c #5E9F52",
"' 	c #5BB772",
") 	c #55B377",
"! 	c #6BBE65",
"~ 	c #74C857",
"{ 	c #59B475",
"] 	c #6EC35F",
"^ 	c #6BC063",
"/ 	c #64B25D",
"( 	c #66B15D",
"_ 	c #6FB25D",
": 	c #66934B",
"< 	c #4B2738",
"[ 	c #699448",
"} 	c #71B45A",
"| 	c #65B15E",
"1 	c #64AF5F",
"2 	c #6DC261",
"3 	c #6CC261",
"4 	c #73C455",
"5 	c #3C403A",
"6 	c #4A2638",
"7 	c #7C1F36",
"8 	c #66AD4F",
"9 	c #62A14B",
"0 	c #5A3838",
"a 	c #722B38",
"b 	c #B23F39",
"c 	c #752D3B",
"d 	c #60393C",
"e 	c #62A14C",
"f 	c #41663D",
"g 	c #353435",
"h 	c #781F36",
"i 	c #9B3237",
"j 	c #F05E3D",
"k 	c #A13640",
"l 	c #822740",
"m 	c #373436",
"n 	c #5DB174",
"o 	c #67BD68",
"p 	c #64A74D",
"q 	c #568D46",
"r 	c #8F513A",
"s 	c #9C3837",
"t 	c #C6493A",
"u 	c #D04E3B",
"v 	c #EE5D3D",
"w 	c #D24F3E",
"x 	c #C84B3E",
"y 	c #5FB671",
"z 	c #4CA680",
"A 	c #60B670",
"B 	c #548744",
"C 	c #333535",
"D 	c #B03737",
"E 	c #C43A38",
"F 	c #ED5C3D",
"G 	c #EF5D3D",
"H 	c #6AC164",
"I 	c #52A87D",
"J 	c #65BA6B",
"K 	c #548845",
"L 	c #323535",
"M 	c #D1513B",
"N 	c #E5563C",
"O 	c #ED5D3D",
"P 	c #6DC361",
"Q 	c #74C758",
"R 	c #73C757",
"S 	c #588644",
"T 	c #3E3435",
"U 	c #DA573C",
"V 	c #6DC360",
"W 	c #65B96C",
"X 	c #63A74D",
"Y 	c #364D38",
"Z 	c #933F33",
"` 	c #B22E2F",
" .	c #E4563B",
"..	c #60B471",
"+.	c #4CA381",
"@.	c #61A34C",
"#.	c #2D3535",
"$.	c #973131",
"%.	c #BA2E2E",
"&.	c #E05239",
"*.	c #E8593B",
"=.	c #75C955",
"-.	c #55AC7A",
";.	c #4DA67F",
">.	c #4EAE7C",
",.	c #BA2F2E",
"'.	c #BD332F",
").	c #EC5B3C",
"!.	c #57B078",
"~.	c #60A24A",
"{.	c #212B2B",
"].	c #962D2D",
"^.	c #B92E2E",
"/.	c #BC312F",
"(.	c #DD5038",
"_.	c #DF5239",
":.	c #E5563B",
"<.	c #73C758",
"[.	c #59B375",
"}.	c #5CA044",
"|.	c #000000",
"1.	c #952322",
"2.	c #BB2F2E",
"3.	c #B82D2E",
"4.	c #B72C2D",
"5.	c #D04534",
"6.	c #F05E3E",
"7.	c #EF5E3D",
"8.	c #4EAF7B",
"9.	c #7E1E26",
"0.	c #9F2833",
"a.	c #B42D2F",
"b.	c #C53A31",
"c.	c #D64A36",
"d.	c #D54936",
"e.	c #4CA87F",
"f.	c #50AC7C",
"g.	c #4FAC7C",
"h.	c #5CA145",
"i.	c #631729",
"j.	c #7E2037",
"k.	c #B02C30",
"l.	c #B92D2E",
"m.	c #B92C2D",
"n.	c #3F712E",
"o.	c #407130",
"p.	c #417439",
"q.	c #3D6240",
"r.	c #36394A",
"s.	c #402532",
"t.	c #440C19",
"u.	c #AA2A2B",
"v.	c #933737",
"w.	c #713C3C",
"x.	c #723B3B",
"y.	c #3C603B",
"z.	c #40722E",
"A.	c #63BC6C",
"B.	c #071404",
"C.	c #07120E",
"D.	c #0C1625",
"E.	c #292E3E",
"F.	c #414458",
"G.	c #262936",
"H.	c #A72929",
"I.	c #B82E2E",
"J.	c #7E3A3A",
"K.	c #324040",
"L.	c #364040",
"M.	c #272935",
"N.	c #050E02",
"O.	c #6DBC52",
"P.	c #62AB4A",
"Q.	c #010206",
"R.	c #1C1D2D",
"S.	c #303047",
"T.	c #2B2C42",
"U.	c #292940",
"V.	c #41141D",
"W.	c #520F0F",
"X.	c #B52D2D",
"Y.	c #9C3535",
"Z.	c #543E3E",
"`.	c #463F3F",
" +	c #374040",
".+	c #384040",
"++	c #1B1C2B",
"@+	c #62AB49",
"#+	c #6AB84F",
"$+	c #234318",
"%+	c #263C2D",
"&+	c #2A2A41",
"*+	c #2B2B43",
"=+	c #2C2C44",
"-+	c #141422",
";+	c #2E0C14",
">+	c #AC2A2A",
",+	c #B02B2B",
"'+	c #B12B2B",
")+	c #953434",
"!+	c #4E3F3F",
"~+	c #523E3E",
"{+	c #68BC69",
"]+	c #73C756",
"^+	c #5B9E44",
"/+	c #010102",
"(+	c #222235",
"_+	c #2C2C45",
":+	c #2C2C43",
"<+	c #2B2A41",
"[+	c #20070C",
"}+	c #1F0202",
"|+	c #160101",
"1+	c #7A1C1C",
"2+	c #B92F2F",
"3+	c #B72F2F",
"4+	c #74C858",
"5+	c #63AC4A",
"6+	c #3A682A",
"7+	c #2F4A35",
"8+	c #26263B",
"9+	c #26273D",
"0+	c #141423",
"a+	c #131320",
"b+	c #071220",
"c+	c #6A1C23",
"d+	c #A42827",
"e+	c #A22727",
"f+	c #70C45D",
"g+	c #4A8337",
"h+	c #0A1320",
"i+	c #101827",
"j+	c #2D2D45",
"k+	c #1E2135",
"l+	c #6EC161",
"m+	c #4A833A",
"n+	c #060C17",
"o+	c #1C1F31",
"p+	c #202337",
"q+	c #26263C",
"r+	c #1B1B2C",
"s+	c #1B1B2D",
"t+	c #4A823E",
"u+	c #0E1726",
"v+	c #68B450",
"w+	c #5FA64A",
"x+	c #305030",
"y+	c #171727",
"z+	c #1C1C2E",
"A+	c #25253B",
"B+	c #161625",
"C+	c #335E25",
"D+	c #030403",
"E+	c #11111C",
"F+	c #212135",
"G+	c #313435",
"H+	c #BCC6C8",
"I+	c #B0B9BB",
"J+	c #050310",
"K+	c #0E2146",
"L+	c #0D336A",
"M+	c #1F406D",
"N+	c #26476E",
"O+	c #4570B6",
"P+	c #4A78C2",
"Q+	c #23456E",
"R+	c #5C6B7D",
"S+	c #8B9291",
"T+	c #585D5F",
"U+	c #00000C",
"V+	c #61B76F",
"W+	c #72C455",
"X+	c #70C254",
"Y+	c #315B2D",
"Z+	c #353A40",
"`+	c #C6D1D4",
" @	c #B9C3C6",
".@	c #000013",
"+@	c #07234D",
"@@	c #0F3874",
"#@	c #22487A",
"$@	c #29507E",
"%@	c #4A7AC5",
"&@	c #4F81D1",
"*@	c #264E7D",
"=@	c #62738A",
"-@	c #929A9C",
";@	c #606567",
">@	c #161817",
",@	c #BAC4C7",
"'@	c #4D8738",
")@	c #14290C",
"!@	c #0F3566",
"~@	c #123871",
"{@	c #354C7B",
"]@	c #32497A",
"^@	c #0F3670",
"/@	c #103771",
"(@	c #0C3570",
"_@	c #3E6AB1",
":@	c #4E7FCE",
"<@	c #4F81D0",
"[@	c #416CB2",
"}@	c #213E72",
"|@	c #636E7D",
"1@	c #7A8281",
"2@	c #495A7D",
"3@	c #70C154",
"4@	c #69B64F",
"5@	c #66813F",
"6@	c #644732",
"7@	c #65546A",
"8@	c #625572",
"9@	c #1D3A73",
"0@	c #0D3267",
"a@	c #0E346C",
"b@	c #3F6CB4",
"c@	c #4F82D2",
"d@	c #013370",
"e@	c #596476",
"f@	c #717877",
"g@	c #354974",
"h@	c #5BAF76",
"i@	c #A87A59",
"j@	c #D39A72",
"k@	c #D19870",
"l@	c #CB9570",
"m@	c #3A4373",
"n@	c #0E3269",
"o@	c #072149",
"p@	c #0C3671",
"q@	c #042049",
"r@	c #0D3269",
"s@	c #60A24B",
"t@	c #22262D",
"u@	c #88644B",
"v@	c #C9936C",
"w@	c #CB946F",
"x@	c #38395D",
"y@	c #082652",
"z@	c #55AF79",
"A@	c #67A652",
"B@	c #48474D",
"C@	c #22262C",
"D@	c #BF8B66",
"E@	c #CC956E",
"F@	c #362412",
"G@	c #66A653",
"H@	c #71BF55",
"I@	c #5D8E50",
"J@	c #54784E",
"K@	c #46464C",
"L@	c #363336",
"M@	c #252121",
"N@	c #7F5C43",
"O@	c #886949",
"P@	c #5D9C44",
"Q@	c #528F3C",
"R@	c #5E9C44",
"S@	c #5C8E50",
"T@	c #70BF56",
"U@	c #68BC68",
"V@	c #6CB856",
"W@	c #46454B",
"X@	c #3C383B",
"Y@	c #342E2E",
"Z@	c #00060C",
"`@	c #1A3411",
" #	c #73C454",
".#	c #6AB74F",
"+#	c #0C3571",
"@#	c #6DB855",
"##	c #6EB854",
"$#	c #131010",
"%#	c #70C355",
"&#	c #69B64E",
"*#	c #082F63",
"=#	c #104C99",
"-#	c #3F70BE",
";#	c #4F81D2",
">#	c #71C354",
",#	c #48504C",
"'#	c #474C4A",
")#	c #45444A",
"!#	c #3A373A",
"~#	c #332D2D",
"{#	c #1D2C16",
"]#	c #224218",
"^#	c #70BF52",
"/#	c #67B24D",
"(#	c #02070B",
"_#	c #0A3369",
":#	c #1150A1",
"<#	c #3F71C0",
"[#	c #6FBF53",
"}#	c #234218",
"|#	c #1D2C17",
"1#	c #74C756",
"2#	c #73C356",
"3#	c #599B45",
"4#	c #0F0F11",
"5#	c #0C0A0B",
"6#	c #090707",
"7#	c #64AF4C",
"8#	c #6EBC51",
"9#	c #284C1D",
"0#	c #203E36",
"a#	c #244871",
"b#	c #1D4373",
"c#	c #0C3775",
"d#	c #3F6CB5",
"e#	c #294C1D",
"f#	c #65AF4C",
"g#	c #5A9B45",
"h#	c #72C357",
"i#	c #61A747",
"j#	c #2A4E1E",
"k#	c #2E5420",
"l#	c #2C5320",
"m#	c #6CB94F",
"n#	c #0C1F34",
"o#	c #254B75",
"p#	c #204574",
"q#	c #113971",
"r#	c #3B67AC",
"s#	c #4A7AC7",
"t#	c #4979C6",
"u#	c #6BB950",
"v#	c #2D5320",
"w#	c #2D5420",
"x#	c #60A748",
"y#	c #75C756",
"z#	c #72C354",
"A#	c #1A4074",
"B#	c #103874",
"C#	c #113974",
"D#	c #1E4474",
"E#	c #193F74",
"F#	c #0F3164",
"G#	c #0B2D5F",
"H#	c #254C76",
"I#	c #264C76",
"J#	c #0C1E32",
"K#	c #0A1524",
"L#	c #233955",
"M#	c #223955",
"N#	c #1C3553",
"O#	c #173352",
"P#	c #4E8A44",
"Q#	c #569740",
"R#	c #6EC158",
"S#	c #142B0F",
"T#	c #090807",
"U#	c #201E1C",
"V#	c #211E1D",
"W#	c #110E09",
"X#	c #6DBF5A",
"Y#	c #5AAE75",
"Z#	c #4A976A",
"`#	c #428A5F",
" $	c #0D0C0D",
".$	c #43824B",
"+$	c #64AE4C",
"@$	c #71C355",
"#$	c #64AE4B",
"$$	c #508B3B",
"%$	c #428860",
"&$	c #4A9969",
"*$	c #459774",
"=$	c #04120B",
"-$	c #091C0C",
";$	c #438B62",
">$	c #559A50",
",$	c #0A1C0C",
"'$	c #04130A",
")$	c #449675",
"!$	c #4BA581",
"~$	c #4DAD7A",
"{$	c #49A575",
"]$	c #49A674",
"^$	c #4BA37C",
"/$	c #65B966",
"($	c #4DA872",
"_$	c #51AF78",
"  . + @ @ # $ @ @ $ % & * = -     & ; > > > > > > > > > > , '   ) ) ! ~ = { = $ % @ ~ ~ # @ @ = - ",
"= % $ # # # # # ~ ~ ~ ] % @ ^ / ( _ : < < < < < < < < < < [ } | 1 2 % # $ ] % ~ ~ ~ ~ ~ $ # # @ 3 ",
"# # $ # $ # $ # ~ ~ ~ ~ # ~ 4 5 6 7 7 7 7 7 7 7 7 7 7 7 7 7 7 6 5 4 ~ ~ $ ~ ~ ~ ~ ~ ~ ~ # $ # $ # ",
"# $ # $ # $ # $ ~ ~ ~ ~ ~ 8 9 0 a b b b b b b b b b b b b b b c d e 8 ~ ~ ~ ~ ~ ~ ~ ~ ~ $ # $ # # ",
"$ + $ # $ # $ # ~ ~ ~ ~ ~ f g h i j j j j j j j j j j j j j j k l m f ~ ~ ~ ~ ~ ~ ~ ~ ~ ~ ~ # ~ $ ",
"n o # $ # $ # $ ~ ~ ~ p q r s t u v v v v v v v v v v v v v v w x s r q p ~ ~ ~ ~ ~ ~ ~ ~ ~ ~ 3 y ",
"z A $ # $ # $ # ~ ~ ~ B C D E F G v v v v v v v v v v v v v v G F E D C B ~ ~ ~ ~ ~ ~ ~ ~ ~ # H I ",
") J # $ # $ # $ ~ ~ ~ K L M N O v v v v v v v v v v v v v v v v O N M L K ~ ~ ~ ~ ~ ~ ~ ~ ~ # % - ",
"P + Q Q ~ ~ ~ ~ ~ R R S T U v v v v v v v v v v v v v v v v v v v v U T S R R ~ ~ ~ ~ ~ @ ~ ~ + V ",
"A A W + ~ ~ ~ ~ ~ X Y Z `  .v v v v v v v v v v v v v v v v v v v v  .` Z Y X ~ ~ ~ ~ ~ ~ ~ ! ..A ",
"+.I A + ~ ~ ~ ~ ~ @.#.$.%.&.*.v v v v v v v v v v v v v v v v v v *.&.%.$.#.@.~ ~ ~ ~ ~ ~ =.o -.;.",
">.. + Q ~ ~ ~ ~ ~ @.#.$.%.,.'.).v v v v v v v v v v v v v v v v ).'.,.%.$.#.@.~ ~ ~ ~ ~ ~ ~ @ = !.",
">.. # # # # ~ ~ ~ ~.{.].%.^./.(._._.:.v v v v v v v v v v :._._.(./.^.%.].{.~.~ ~ ~ ~ ~ <.# # =   ",
">.[.J + # # ~ ~ ~ }.|.1.2.^.^.3.3.4.5.6.7.7.7.7.7.7.7.7.6.5.4.3.3.^.^.2.1.|.}.~ ~ ~ ~ ~ ~ ~ ] y   ",
"8.>.-.! + ~ ~ ~ ~ }.|.9.0.a.^.^.^.^.b.c.d.d.d.d.d.d.d.d.c.b.^.^.^.^.a.0.9.|.}.~ ~ ~ ~ ~ <.P y e.>.",
"8.f.g.-.! # ~ ~ ~ h.|.i.j.k.^.^.^.^.l.3.m.m.m.m.m.m.m.m.3.l.^.^.^.^.k.j.i.|.h.~ ~ ~ ~ ~ @ n I 8.>.",
"8.8.- J % ~ n.o.p.q.r.s.t.u.^.^.^.^.^.%.v.w.x.x.x.x.w.v.%.^.^.^.^.^.u.t.s.r.y.z.n.n.~ ~ ~ ! [.f.8.",
"8.- A.@ # ~ B.C.D.E.F.G.|.H.I.^.^.^.^.^.J.K.L.L.L.L.K.J.^.^.^.^.^.I.H.|.G.F.M.|.N.B.~ ~ ~ ~ P &   ",
"8.A.$ ~ ~ ~ O.P.Q.R.S.T.U.V.W.X.^.%.Y.Z.`. +.+.+.+.+ +`.Z.Y.%.^.X.W.V.U.T.S.++|.@+O.~ ~ ~ ~ ~ P ) ",
"8.A.~ ~ ~ ~ ~ #+$+%+&+*+=+-+;+>+,+'+)+!+~+~+~+~+~+~+~+~+!+)+'+,+>+;+-+=+*+&+%+$+#+~ ~ ~ ~ ~ ~ ! ) ",
"{+V $ # ~ ~ ~ ~ ]+^+/+(+_+:+<+[+}+|+1+2+3+3+3+3+3+3+3+3+2+1+|+}+[+<+:+_+(+/+^+]+~ ~ ~ ~ ~ ~ ~ @ ! ",
"= % 4+$ ~ ~ ~ ~ ~ 5+6+7+8+9+9+0+a+b+c+d+e+e+e+e+e+e+e+e+d+c+b+a+0+9+9+8+7+6+5+~ ~ ~ ~ ~ ~ ~ =.f+= ",
") o # $ ~ ~ ~ ~ ~ ~ ~ g+|.h+i+*+=+j+k+|.|.|.|.|.|.|.|.|.|.k+j+=+*+i+h+|.g+~ ~ ~ ~ ~ ~ ~ ~ ~ ~ l+& ",
"= % $ # ~ ~ ~ ~ ~ ~ ~ m+n+o+p+*+=+=+q+r+s+s+s+s+s+s+s+s+r+q+=+=+*+p+o+n+m+~ ~ ~ ~ ~ ~ ~ ~ ~ ~ Q = ",
"# # ~ ~ ~ ~ =.~ ~ ~ ~ t+u+U.j+j+_+=+_+j+j+_+_+_+_+_+_+j+j+_+=+_+j+j+U.u+t+~ ~ ~ ~ ~ ~ ~ ~ ~ ~ ~ ~ ",
"P = ] @ ~ @ ~ ~ ~ ~ ~ v+w+x+y+y+z+=+A+B+A+=+=+=+=+=+=+A+B+A+=+z+y+y+x+w+v+~ ~ ~ ~ ~ ~ ~ ~ ~ @ ! P ",
"I I n + ~ ~ ~ ~ ~ ~ ~ ~ ~ C+|.D+E+_+F+|.F+_+_+_+_+_+_+F+|.F+_+E+D+|.C+~ ~ ~ ~ ~ ~ ~ ~ ~ ~ ~ J -.I ",
"g.[.! + ~ ~ ~ ~ ~ ~ ~ ~ ~ C+G+H+I+J+K+L+M+N+O+P+P+O+Q+R+S+T+U+I+H+G+C+~ ~ ~ ~ ~ ~ ~ ~ ~ ~ ~ ] V+8.",
"8.J ~ =.~ ~ ~ ~ ~ ~ ~ W+X+Y+Z+`+ @.@+@@@#@$@%@&@&@%@*@=@-@;@>@,@`+Z+Y+X+W+~ ~ ~ ~ ~ ~ ~ ~ Q # P   ",
"  V+f+~ ~ ~ ~ ~ ~ ~ ~ '@)@!@~@{@]@^@/@(@_@:@<@&@&@<@:@[@}@|@1@2@{@~@!@)@'@~ ~ ~ ~ ~ ~ ~ ~ ~ @ ! ) ",
"8.I [.f+~ ~ ~ ~ ~ 3@4@5@6@7@8@9@/@0@a@(@b@c@&@&@&@&@c@b@d@e@f@g@9@8@7@6@5@4@3@~ ~ ~ ~ ~ ~ @ J f.8.",
">.8.-.h@] ~ ~ ~ ~ }.|.i@j@k@l@m@n@|.o@p@b@c@&@&@&@&@c@b@p@q@|.r@m@l@k@j@i@|.}.~ ~ ~ ~ ~ @ W !.;.f.",
">.8.8.[.V # # $ # s@t@u@i@v@w@x@y@|.o@p@b@c@&@&@&@&@c@b@p@o@|.y@x@w@v@i@u@t@~.~ ~ ~ ~ ~ f+V+z@g.8.",
"f.  y P @ $ $ # $ A@B@C@|.D@E@F@|.|.o@p@b@c@&@&@&@&@c@b@p@o@|.|.F@E@D@|.C@B@G@~ ~ ~ ~ ~ =.Q J f.8.",
"f.y P @ $ # $ H@I@J@K@L@M@N@O@P@Q@|.o@p@b@c@&@&@&@&@c@b@p@o@|.Q@R@O@N@M@L@K@J@S@T@~ ~ ~ # # @ !   ",
"8.[.U@@ # $ # V@W@W@W@X@Y@Z@`@ #.#|.o@+#b@c@&@&@&@&@c@b@+#o@|..#W+`@Z@Y@X@W@W@W@@#~ ~ ~ ~ + H y 8.",
"- - n @ # # $ ##W@W@W@X@Y@$#`@%#&#|.*#=#-#;#&@&@&@&@;#-#=#*#|.&#>#`@$#Y@X@W@W@W@@#~ ~ ~ ~ ~ J h@y ",
"@ + + $ # $ # V@,#'#)#!#~#{#]#^#/#(#_#:#<#;#&@&@&@&@;#<#:#_#(#/#[#}#|#~#!#)#'#,#@#~ ~ ~ ~ ~ @ % ] ",
"# # $ # $ # $ 1#2#3#4#5#6#7#8#9#0#a#b#c#d#c@&@&@&@&@c@d#c#b#a#0#e#O.f#6#5#4#g#h#R ~ ~ ~ ~ ~ # # ~ ",
"o V # $ # $ # $ $ i#j#k#l#m#%#`@n#o#p#q#r#s#t#t#t#t#s#r#q#p#o#n#`@>#u#v#w#j#x#~ ~ ~ ~ ~ ~ ~ ~ @ ! ",
"[.U@~ ~ ~ ~ ~ ~ # $ y#<.y#$ z#`@n#o#o#o#A#B#C#C#C#C#B#A#o#o#o#n#`@%## <.y#<.# $ ~ ~ ~ ~ ~ ~ # P & ",
"f+f+~ ~ ~ ~ ~ ~ $ # $ # $ # %#`@n#o#o#o#D#E#F#G#G#F#E#D#o#o#o#n#`@z#$ # $ # $ # ~ ~ ~ ~ ~ ~ $ ~ ] ",
"~ ~ ~ ~ ~ ~ ~ ~ # $ # $ # $ z#`@n#H#H#H#H#I#J#|.|.J#I#H#H#H#H#n#`@%## $ # $ # $ ~ ~ ~ ~ # $ # $ ~ ",
"~ ~ ~ ~ ~ ~ ~ ~ $ # $ # $ # %#`@K#L#M#L#N#O#P#Q#Q#P#O#N#L#M#L#K#`@z#$ # $ # $ # ~ ~ ~ ~ $ # $ # ~ ",
"@ $ $ $ # ~ # ~ # $ # @ @ @ R#S#T#U#U#V#W#|..#~ ~ .#|.W#V#U#U#T#S#X#Q ~ @ @ <.# ~ ~ # + # $ # @ + ",
"[.! $ $ ~ ~ ~ ~ $ # + n ! = Y#Z#`# $ $ $.$+$@$~ ~ @$#$$$ $ $ $%$&$Y#! ~ % n ! # ~ # # # $ # # P h@",
">.{ . W P ~ + V+A ! ] !.{ A g.z *$=$-$|.;$J @ ~ P ! Q >$|.,$'$)$!$g.V+o y f.! P . y V $ $ o * y g.",
"8.f.g.z ! ~ P I +.[.% { >.8.f.>.~${$]$]$^$-.+ @ H ) P /$]${$($_$8.8.8.>.>.  ! {++.+.W # @ & 8.8.8."};
