/* XPM */
static char * ACharDown_xpm[] = {
"49 48 63 1",
" 	c #52B179",
".	c #62BB6D",
"+	c #71C65C",
"@	c #71C65B",
"#	c #75C856",
"$	c #73C858",
"%	c #6FC45E",
"&	c #5BB672",
"*	c #63BC6B",
"=	c #6BC163",
"-	c #56B376",
";	c #6DC360",
">	c #5DB871",
",	c #5FB86F",
"'	c #74C857",
")	c #5BB772",
"!	c #55B377",
"~	c #6BBE65",
"{	c #59B475",
"]	c #6EC35F",
"^	c #6AC164",
"/	c #6DC361",
"(	c #6CC261",
"_	c #5DB174",
":	c #67BD68",
"<	c #5FB671",
"[	c #4CA680",
"}	c #60B670",
"|	c #52A87D",
"1	c #65BA6B",
"2	c #74C758",
"3	c #915841",
"4	c #65B96C",
"5	c #60B471",
"6	c #4CA381",
"7	c #A0654D",
"8	c #E09669",
"9	c #B56E4B",
"0	c #75C955",
"a	c #55AC7A",
"b	c #4DA67F",
"c	c #4EAE7C",
"d	c #57B078",
"e	c #73C758",
"f	c #59B375",
"g	c #4EAF7B",
"h	c #4CA87F",
"i	c #50AC7C",
"j	c #4FAC7C",
"k	c #63BC6C",
"l	c #68BC69",
"m	c #74C858",
"n	c #70C45D",
"o	c #F6C192",
"p	c #6EC161",
"q	c #F1E6D6",
"r	c #412F2F",
"s	c #61B76F",
"t	c #CFCCC5",
"u	c #5BAF76",
"v	c #55AF79",
"w	c #68BC68",
"x	c #4BA581",
" .+@@#$@@$%&*=-  &;>,$''$@$@@%) !!~'={=$%@''#@@=-",
"=%$#####''']%@====@%%'''''''##;^~/%#$]%'''''$##@(",
"##$#$#$#''''#'###'##'''''''''''###''$'''''''#$#$#",
"#$#$#$#$''''''''''''''''''''''''''''''''''''$#$##",
"$+$#$#$#''''''''''''''''''''''''''''''''''''''#'$",
"_:#$#$#$'''''''''''''''''''''''''''''''''''''''(<",
"[}$#$#$#''''''''''''''''''''''''''''''''''''''#^|",
"!1#$#$#$''''''''''''''''''''''''''''''''''''''#%-",
"/+22''''''''''''''333333333333''''''''''''''@''+;",
"}}4+''''''''''''''333333333333''''''''''''''''~5}",
"6|}+''''''''''''3377889999887733'''''''''''''0:ab",
"c.+2''''''''''''3377889999887733''''''''''''''@=d",
"c.####''''''''33778899999999887733''''''''''e##= ",
"cf1+##''''''''33778899999999887733'''''''''''']< ",
"gca~+'''''''''33778899999999889933''''''''''e/<hc",
"gija~#''''''''33778899999999889933''''''''''@_|gc",
"gg-1%'''''''337777778899998899997733'''''''''~fig",
"g-k@#'''''''337777778899998899997733''''''''''/& ",
"gk$'''''''''337777773333999999777733'''''''''''/!",
"gk''''''''''337777773333999999777733'''''''''''~!",
"l;$#''''''''337777338888333377777733'''''''''''@~",
"=%m$''''''''337777338888333377777733''''''''''0n=",
"!:#$''''''''''333388oooo8888333333'''''''''''''p&",
"=%$#''''''''''333388oooo8888333333'''''''''''''2=",
"##''''0'''''''3388qq33oooo33qq8833'''''''''''''''",
"/=]@'@''''''''3388qq33oooo33qq8833''''''''''''@~/",
"||_+''''''''''''33oorroooorroo33''''''''''''''1a|",
"jf~+''''''''''''33oorroooorroo33'''''''''''''']sg",
"g1'0''''''''''99tt88oooooooo88tt99'''''''''''2#/ ",
" sn'''''''''''99tt88oooooooo88tt99''''''''''''@~!",
"g|fn''''''''9988tttt88888888tttt8899'''''''''@1ig",
"cgau]'''''''9988tttt88888888tttt8899''''''''@4dbi",
"cggf;##$#m#$99oo88tttttttttttt88oo99''''''''nsvjg",
"i </@$$#$#$#99oo88tttttttttttt88oo99''''''''021ig",
"i</@$#$##$#$#$9999tttttttttttt9999''''''''''##@~ ",
"gfw@#$#$$#$#$#9999tttttttttttt9999'''''''''''+^<g",
"--_@##$##$#$#$#$9988889999888899''''''''''''''1u<",
"@++$#$#$$#$#$#$#9988889999888899''''''''''''''@%]",
"##$#$#$##$#$#$#$''9999''''9999''''''''''''''''##'",
":;#$#$#$$#$#$#$#''9999''''9999'''''''''''''''''@~",
"fw''''''#$#$#$#$''''''''''''''''#$#$#$#$''''''#/&",
"nn''''''$#$#$#$#''''''''''''''''$#$#$#$#''''''$']",
"''''''''#$#$#$#$''''''''''''''@'#$#$#$#$''''#$#$'",
"''''''''$#$#$#$#''''''''''''''''$#$#$#$#''''$#$#'",
"@$$$#'#'#$#@@@@+n@2@@'''''''$$@n%n2'@@e#''#+#$#@+",
"f~$$''''$#+_~=uav<n}.e''''''#+}avu~'%_~#'###$##/u",
"c{.4/'+s}~]d{}j[[|.va1@'/~2~kkixxjs:<i~/.<;$$:*<j",
"gij[~'/|6f%{cgicgcggba+@^!/:gc  gggcc ~l664#@&ggg"};
