/* XPM */
static char * player_right_xpm[] = {
"49 48 844 2",
"  	c #52B179",
". 	c #62BB6D",
"+ 	c #71C65C",
"@ 	c #71C65B",
"# 	c #75C856",
"$ 	c #73C858",
"% 	c #6FC45E",
"& 	c #5BB672",
"* 	c #63BC6B",
"= 	c #6BC163",
"- 	c #56B276",
"; 	c #736951",
"> 	c #7E2036",
", 	c #76A14F",
"' 	c #5BB772",
") 	c #55B377",
"! 	c #6BBE65",
"~ 	c #74C857",
"{ 	c #59B475",
"] 	c #56B376",
"^ 	c #74C656",
"/ 	c #71B65A",
"( 	c #72B659",
"_ 	c #73B756",
": 	c #6FB25D",
"< 	c #8D6E45",
"[ 	c #983037",
"} 	c #849849",
"| 	c #76BB52",
"1 	c #70B55B",
"2 	c #6EB25E",
"3 	c #6DB461",
"4 	c #6DC361",
"5 	c #6EC35F",
"6 	c #6CC261",
"7 	c #75BA53",
"8 	c #7C4139",
"9 	c #7D2536",
"0 	c #7E2536",
"a 	c #D4513B",
"b 	c #EF5D3D",
"c 	c #ED5D3D",
"d 	c #EE5D3D",
"e 	c #B24039",
"f 	c #792236",
"g 	c #7D1F36",
"h 	c #7B7842",
"i 	c #75C055",
"j 	c #77AC4F",
"k 	c #81A04C",
"l 	c #A7483A",
"m 	c #AA3A38",
"n 	c #AB3B38",
"o 	c #DD543C",
"p 	c #C74A3A",
"q 	c #A83938",
"r 	c #9D6C40",
"s 	c #78AB4F",
"t 	c #77B050",
"u 	c #7B1F36",
"v 	c #973037",
"w 	c #EA5B3D",
"x 	c #EF5E3D",
"y 	c #F15E3D",
"z 	c #D5513B",
"A 	c #7E2136",
"B 	c #7C583C",
"C 	c #75C456",
"D 	c #5DB174",
"E 	c #67BD68",
"F 	c #69B44D",
"G 	c #569841",
"H 	c #72833D",
"I 	c #9B2832",
"J 	c #AD3434",
"K 	c #EA5B3C",
"L 	c #DA513A",
"M 	c #9E2833",
"N 	c #944935",
"O 	c #5D933F",
"P 	c #599C42",
"Q 	c #70C154",
"R 	c #5FB671",
"S 	c #4CA680",
"T 	c #60B670",
"U 	c #559740",
"V 	c #000000",
"W 	c #6A1616",
"X 	c #B92D2D",
"Y 	c #C43931",
"Z 	c #EB5B3C",
"` 	c #F05E3E",
" .	c #F15E3E",
"..	c #E2533A",
"+.	c #BD302F",
"@.	c #AD2A2A",
"#.	c #320606",
"$.	c #152C0D",
"%.	c #6BB950",
"&.	c #6AC164",
"*.	c #52A87D",
"=.	c #65BA6B",
"-.	c #57983F",
";.	c #B82D2E",
">.	c #C33931",
",.	c #C64C31",
"'.	c #96341A",
").	c #972F07",
"!.	c #8E2806",
"~.	c #750D02",
"{.	c #6B0B02",
"].	c #1B0100",
"^.	c #1B3512",
"/.	c #74C758",
"(.	c #579840",
"_.	c #A5350E",
":.	c #818894",
"<.	c #C4C6D5",
"[.	c #B6B6C9",
"}.	c #968FAE",
"|.	c #8983A0",
"1.	c #22202A",
"2.	c #6BBA50",
"3.	c #6DC360",
"4.	c #65B96C",
"5.	c #55953F",
"6.	c #366227",
"7.	c #574E2C",
"8.	c #6F1B2F",
"9.	c #8B222F",
"0.	c #A83F28",
"a.	c #75240B",
"b.	c #AD9EA9",
"c.	c #DADAEB",
"d.	c #E6E6F8",
"e.	c #E3E2F5",
"f.	c #DCDAEF",
"g.	c #D3D1E7",
"h.	c #A39BBA",
"i.	c #9993B0",
"j.	c #536E55",
"k.	c #396729",
"l.	c #66B24D",
"m.	c #60B471",
"n.	c #4CA381",
"o.	c #488035",
"p.	c #561323",
"q.	c #7C2036",
"r.	c #912534",
"s.	c #B72D2E",
"t.	c #C13831",
"u.	c #EA5A3C",
"v.	c #ED5C3D",
"w.	c #882E17",
"x.	c #A8ABB9",
"y.	c #DFDFF1",
"z.	c #E5E5F7",
"A.	c #E5E6F7",
"B.	c #DEDDF1",
"C.	c #B7AFD0",
"D.	c #AEA6C7",
"E.	c #4C4858",
"F.	c #020701",
"G.	c #62A848",
"H.	c #75C757",
"I.	c #74C556",
"J.	c #75C955",
"K.	c #55AC7A",
"L.	c #4DA67F",
"M.	c #4EAE7C",
"N.	c #498035",
"O.	c #28131E",
"P.	c #3B202F",
"Q.	c #5B2131",
"R.	c #852235",
"S.	c #912634",
"T.	c #BD3430",
"U.	c #E7583B",
"V.	c #892E15",
"W.	c #B7B9C8",
"X.	c #E7E7F9",
"Y.	c #E3E3F4",
"Z.	c #DEDEF0",
"`.	c #DEDEEF",
" +	c #DAD9EC",
".+	c #D3D2E5",
"++	c #5E5E66",
"@+	c #6A4031",
"#+	c #7E4D3B",
"$+	c #7D4D3B",
"%+	c #7D473A",
"&+	c #7A8C47",
"*+	c #57B078",
"=+	c #34151D",
"-+	c #4D222E",
";+	c #5D2130",
">+	c #772035",
",+	c #862334",
"'+	c #B62D2E",
")+	c #BD322F",
"!+	c #E2543A",
"~+	c #E95A3C",
"{+	c #E9593C",
"]+	c #E8593B",
"^+	c #862B14",
"/+	c #BDBDCC",
"(+	c #4C3E42",
"_+	c #684648",
":+	c #694648",
"<+	c #664445",
"[+	c #29191A",
"}+	c #030001",
"|+	c #71374A",
"1+	c #864358",
"2+	c #854257",
"3+	c #7F8356",
"4+	c #74BE55",
"5+	c #76C154",
"6+	c #59B375",
"7+	c #801D1D",
"8+	c #B92E2E",
"9+	c #9E2A2E",
"0+	c #33202E",
"a+	c #5B232E",
"b+	c #B42D2E",
"c+	c #BB302E",
"d+	c #BB302F",
"e+	c #BA302E",
"f+	c #690B06",
"g+	c #B8BAC8",
"h+	c #872D14",
"i+	c #EB5C3C",
"j+	c #E4593A",
"k+	c #662315",
"l+	c #00080F",
"m+	c #968DAB",
"n+	c #B1A7CA",
"o+	c #AFA5C8",
"p+	c #B0A7CA",
"q+	c #9F88A4",
"r+	c #7D2832",
"s+	c #7C6E40",
"t+	c #6EC15E",
"u+	c #4EAF7B",
"v+	c #477F39",
"w+	c #821D1D",
"x+	c #BC2F2E",
"y+	c #A22A2F",
"z+	c #4A2030",
"A+	c #672330",
"B+	c #B82E2E",
"C+	c #680905",
"D+	c #D65336",
"E+	c #CE5034",
"F+	c #5C1F11",
"G+	c #000C11",
"H+	c #A29DB7",
"I+	c #C0BAD8",
"J+	c #BEB8D6",
"K+	c #BFB9D7",
"L+	c #AD9DB8",
"M+	c #8B586F",
"N+	c #86736C",
"O+	c #69A167",
"P+	c #5A9773",
"Q+	c #50AC7C",
"R+	c #4FAC7C",
"S+	c #437A3F",
"T+	c #821D1C",
"U+	c #AB2A30",
"V+	c #7D2036",
"W+	c #892235",
"X+	c #B62D2F",
"Y+	c #8A2E15",
"Z+	c #DD5638",
"`+	c #3F1309",
" @	c #C4C4D3",
".@	c #D4D1E8",
"+@	c #B1A9CC",
"@@	c #A797B7",
"#@	c #802D42",
"$@	c #4EAE7A",
"%@	c #499964",
"&@	c #509655",
"*@	c #3B6738",
"=@	c #0B1828",
"-@	c #6B2430",
";@	c #992E38",
">@	c #982B36",
",@	c #972633",
"'@	c #9E2732",
")@	c #B72E2E",
"!@	c #680805",
"~@	c #BABBCA",
"{@	c #E8E8FA",
"]@	c #B7B9C7",
"^@	c #680300",
"/@	c #BF421D",
"(@	c #B03C1B",
"_@	c #330B02",
":@	c #252529",
"<@	c #888894",
"[@	c #9595A1",
"}@	c #D1D1E2",
"|@	c #D3D1E8",
"1@	c #B1A8CC",
"2@	c #A796B7",
"3@	c #55B074",
"4@	c #2D5B31",
"5@	c #222236",
"6@	c #2D2D45",
"7@	c #282C45",
"8@	c #142C45",
"9@	c #6F2D3E",
"0@	c #BB2E2E",
"a@	c #BB2E2D",
"b@	c #670F0E",
"c@	c #888B96",
"d@	c #D0D0E0",
"e@	c #CFCFDF",
"f@	c #A0A1AE",
"g@	c #9FA2B0",
"h@	c #9598A4",
"i@	c #28292D",
"j@	c #3B3C40",
"k@	c #D6D7E7",
"l@	c #E9E9FB",
"m@	c #E7E7F8",
"n@	c #D4D2E9",
"o@	c #B2AACE",
"p@	c #A897B8",
"q@	c #62B96A",
"r@	c #376529",
"s@	c #222235",
"t@	c #2C2C45",
"u@	c #2C2C44",
"v@	c #282C44",
"w@	c #542C41",
"x@	c #842D3B",
"y@	c #8F2D39",
"z@	c #B62E2F",
"A@	c #9C2525",
"B@	c #480000",
"C@	c #ADAEBC",
"D@	c #EAEAFC",
"E@	c #DDDDEE",
"F@	c #9B9BA8",
"G@	c #3F3D47",
"H@	c #857F98",
"I@	c #C2BED7",
"J@	c #CBC7E1",
"K@	c #CCC8E2",
"L@	c #BAAFC8",
"M@	c #987793",
"N@	c #918187",
"O@	c #7A984E",
"P@	c #759551",
"Q@	c #62BB6B",
"R@	c #386528",
"S@	c #212135",
"T@	c #2A2C44",
"U@	c #1F2C44",
"V@	c #562C41",
"W@	c #B52E2F",
"X@	c #BA2E2E",
"Y@	c #BA2D2E",
"Z@	c #B82222",
"`@	c #B91D1D",
" #	c #A51B1A",
".#	c #94727B",
"+#	c #9395A1",
"@#	c #9394A0",
"##	c #9495A1",
"$#	c #82838D",
"%#	c #3B3A47",
"&#	c #AAA2C4",
"*#	c #B1A8CB",
"=#	c #B1A9CD",
"-#	c #9F88A6",
";#	c #7C102A",
">#	c #7B653A",
",#	c #74C756",
"'#	c #396C3A",
")#	c #3C6F35",
"!#	c #384A44",
"~#	c #363849",
"{#	c #303146",
"]#	c #2B2C44",
"^#	c #3D2C43",
"/#	c #6D2D3F",
"(#	c #702D3E",
"_#	c #6D2430",
":#	c #6B1F28",
"<#	c #6E2736",
"[#	c #702D3F",
"}#	c #6F2A3A",
"|#	c #6B2029",
"1#	c #6E2429",
"2#	c #81392F",
"3#	c #88483F",
"4#	c #D6C0BF",
"5#	c #E9D7D7",
"6#	c #B3908E",
"7#	c #66290F",
"8#	c #581F1A",
"9#	c #68001F",
"0#	c #67001F",
"a#	c #680723",
"b#	c #6B192C",
"c#	c #6F293C",
"d#	c #8C5F77",
"e#	c #90647D",
"f#	c #87846E",
"g#	c #77AB4E",
"h#	c #76B251",
"i#	c #74C757",
"j#	c #05060A",
"k#	c #383B4C",
"l#	c #414457",
"m#	c #34364B",
"n#	c #2B2B43",
"o#	c #292C44",
"p#	c #141F31",
"q#	c #001625",
"r#	c #1D2439",
"s#	c #292C45",
"t#	c #23283F",
"u#	c #031727",
"v#	c #1E1E27",
"w#	c #5C3F30",
"x#	c #6A5145",
"y#	c #E2E0DF",
"z#	c #FAFBFB",
"A#	c #AEA7A5",
"B#	c #57331A",
"C#	c #703634",
"D#	c #812639",
"E#	c #802739",
"F#	c #802639",
"G#	c #7D1D33",
"H#	c #7D2232",
"I#	c #7D1C32",
"J#	c #7A8443",
"K#	c #70C45D",
"L#	c #4EA56E",
"M#	c #5DAC5E",
"N#	c #385F30",
"O#	c #161821",
"P#	c #11121C",
"Q#	c #0C0B16",
"R#	c #1F1F32",
"S#	c #1A1F31",
"T#	c #151B2C",
"U#	c #24263B",
"V#	c #292A40",
"W#	c #2B2B42",
"X#	c #25273C",
"Y#	c #141A2B",
"Z#	c #091626",
"`#	c #463632",
" $	c #BA8764",
".$	c #C69471",
"+$	c #EEE6E2",
"@$	c #F9FAFA",
"#$	c #A3A1A1",
"$$	c #A78979",
"%$	c #ECC2AC",
"&$	c #EAC1AB",
"*$	c #EBC1AC",
"=$	c #DBB49F",
"-$	c #744E42",
";$	c #674D34",
">$	c #73AD4E",
",$	c #76BA53",
"'$	c #76B953",
")$	c #75BF54",
"!$	c #6EC161",
"~$	c #6DC15D",
"{$	c #3D6F2E",
"]$	c #18300F",
"^$	c #1C3713",
"/$	c #23312E",
"($	c #2A2A42",
"_$	c #171D2E",
":$	c #111929",
"<$	c #25263C",
"[$	c #23253A",
"}$	c #0C1626",
"|$	c #1F1E28",
"1$	c #392D2E",
"2$	c #5C443A",
"3$	c #C7916B",
"4$	c #D29C78",
"5$	c #F0E5DF",
"6$	c #F9F7F6",
"7$	c #A8A4A2",
"8$	c #2B1A0B",
"9$	c #B59785",
"0$	c #FAD1B9",
"a$	c #F8D0B8",
"b$	c #F9D1B9",
"c$	c #E9C2AB",
"d$	c #7C5B49",
"e$	c #6D593A",
"f$	c #73BB53",
"g$	c #71C355",
"h$	c #71C254",
"i$	c #72C455",
"j$	c #55943E",
"k$	c #05050C",
"l$	c #05050B",
"m$	c #10101D",
"n$	c #1B1F32",
"o$	c #101828",
"p$	c #000F24",
"q$	c #674C3F",
"r$	c #C7926C",
"s$	c #CB946D",
"t$	c #CF9870",
"u$	c #D19A74",
"v$	c #F0C8AF",
"w$	c #F9D4BE",
"x$	c #F4CDB7",
"y$	c #F1CAB2",
"z$	c #F4CDB5",
"A$	c #F2C8AF",
"B$	c #CE9974",
"C$	c #C7986C",
"D$	c #87C15B",
"E$	c #040409",
"F$	c #0C0C17",
"G$	c #151523",
"H$	c #29293F",
"I$	c #28283E",
"J$	c #1C2032",
"K$	c #03162B",
"L$	c #634A40",
"M$	c #BE8B67",
"N$	c #C18D68",
"O$	c #C28F6B",
"P$	c #E8BDA2",
"Q$	c #F3C9B0",
"R$	c #F6CDB5",
"S$	c #F5CDB4",
"T$	c #EFC6AE",
"U$	c #E8C2AB",
"V$	c #E3BDA2",
"W$	c #C8A472",
"X$	c #C1A46B",
"Y$	c #85C25B",
"Z$	c #569740",
"`$	c #0E0E19",
" %	c #010102",
".%	c #242439",
"+%	c #1A1C29",
"@%	c #191B27",
"#%	c #191C28",
"$%	c #30282C",
"%%	c #BB8966",
"&%	c #D29971",
"*%	c #EBBEA2",
"=%	c #FAD3BB",
"-%	c #E8BA9D",
";%	c #D29970",
">%	c #B98764",
",%	c #644434",
"'%	c #66673A",
")%	c #74C356",
"!%	c #75C857",
"~%	c #61A848",
"{%	c #40722E",
"]%	c #396332",
"^%	c #252739",
"/%	c #272E38",
"(%	c #3D6B31",
"_%	c #40732F",
":%	c #2D4435",
"<%	c #25253A",
"[%	c #26273D",
"}%	c #222439",
"|%	c #0F1827",
"1%	c #0E1725",
"2%	c #0B1320",
"3%	c #251E23",
"4%	c #A47758",
"5%	c #B98662",
"6%	c #CAA38A",
"7%	c #D5B39F",
"8%	c #C59E85",
"9%	c #B2815E",
"0%	c #9F8057",
"a%	c #687D3F",
"b%	c #698D43",
"c%	c #73C456",
"d%	c #61B76F",
"e%	c #63AC4A",
"f%	c #6CBC51",
"g%	c #599B42",
"h%	c #274A1B",
"i%	c #040709",
"j%	c #0D1726",
"k%	c #0D1624",
"l%	c #0E151F",
"m%	c #08101A",
"n%	c #513424",
"o%	c #5E3F2F",
"p%	c #321C11",
"q%	c #508D3B",
"r%	c #55963F",
"s%	c #6EBE52",
"t%	c #34655E",
"u%	c #0B3873",
"v%	c #0A2C5C",
"w%	c #080D15",
"x%	c #0A1E3E",
"y%	c #0E3873",
"z%	c #3B4E7C",
"A%	c #9C9DAA",
"B%	c #A2A2AD",
"C%	c #665B5D",
"D%	c #452A1B",
"E%	c #4D7433",
"F%	c #518E3C",
"G%	c #4F8B3A",
"H%	c #5CA145",
"I%	c #73C756",
"J%	c #67B670",
"K%	c #428396",
"L%	c #0E4185",
"M%	c #02234F",
"N%	c #014EA1",
"O%	c #5570B0",
"P%	c #E1E2F4",
"Q%	c #E9E9F8",
"R%	c #74747C",
"S%	c #5FA546",
"T%	c #5BAF76",
"U%	c #599D5D",
"V%	c #0B3772",
"W%	c #093F83",
"X%	c #324F86",
"Y%	c #637390",
"Z%	c #6B7A97",
"`%	c #929DC3",
" &	c #98A2C8",
".&	c #B5B6C9",
"+&	c #BDBDCA",
"@&	c #849A87",
"#&	c #60A647",
"$&	c #74C858",
"%&	c #5DA245",
"&&	c #2C521F",
"*&	c #063066",
"=&	c #0850A4",
"-&	c #3F5F9D",
";&	c #7B8384",
">&	c #768087",
",&	c #24549E",
"'&	c #2857A5",
")&	c #D0D3E9",
"!&	c #EBEBFB",
"~&	c #9696A1",
"{&	c #4F8C3A",
"]&	c #55AF79",
"^&	c #4F8C3C",
"/&	c #535B64",
"(&	c #84909E",
"_&	c #87919C",
":&	c #8F9797",
"<&	c #8C9496",
"[&	c #737E8D",
"}&	c #758091",
"|&	c #D4D5E5",
"1&	c #E9E9FA",
"2&	c #9B9BA5",
"3&	c #2B2B29",
"4&	c #5A9248",
"5&	c #72C757",
"6&	c #60A2A0",
"7&	c #365B86",
"8&	c #5D6264",
"9&	c #929B9B",
"0&	c #939A9B",
"a&	c #969B9B",
"b&	c #939998",
"c&	c #7E8585",
"d&	c #7A8284",
"e&	c #6E7EAB",
"f&	c #CDD0E8",
"g&	c #9F9FA8",
"h&	c #343533",
"i&	c #5B914B",
"j&	c #73C656",
"k&	c #68BC68",
"l&	c #73C758",
"m&	c #498034",
"n&	c #172C39",
"o&	c #122F5E",
"p&	c #0D356D",
"q&	c #233E71",
"r&	c #304A78",
"s&	c #6A5D75",
"t&	c #BC8768",
"u&	c #B68363",
"v&	c #524237",
"w&	c #313336",
"x&	c #264E93",
"y&	c #C7CBE4",
"z&	c #9A9BA6",
"A&	c #000B14",
"B&	c #1C3725",
"C&	c #224117",
"D&	c #75C756",
"E&	c #407330",
"F&	c #0A2B5B",
"G&	c #113C7A",
"H&	c #103975",
"I&	c #00336D",
"J&	c #5F4E6A",
"K&	c #B8805D",
"L&	c #B27B58",
"M&	c #4A3527",
"N&	c #232128",
"O&	c #234C92",
"P&	c #999BA5",
"Q&	c #00000D",
"R&	c #01161D",
"S&	c #6CBC52",
"T&	c #3B6A2A",
"U&	c #0C3B79",
"V&	c #1452A4",
"W&	c #0E4082",
"X&	c #000007",
"Y&	c #242227",
"Z&	c #4D474B",
"`&	c #4D484C",
" *	c #46454A",
".*	c #44454F",
"+*	c #2D5195",
"@*	c #00000B",
"#*	c #01161C",
"$*	c #72C657",
"%*	c #4C8537",
"&*	c #1A3411",
"**	c #103B74",
"=*	c #19519C",
"-*	c #123F7B",
";*	c #1D1C1F",
">*	c #414045",
",*	c #424146",
"'*	c #41414B",
")*	c #2C5195",
"!*	c #999CA9",
"~*	c #001D39",
"{*	c #082131",
"]*	c #1A3757",
"^*	c #264D78",
"/*	c #1C3B5E",
"(*	c #15110E",
"_*	c #332D2D",
":*	c #342E2E",
"<*	c #333037",
"[*	c #274E93",
"}*	c #9BA2B7",
"|*	c #0A4472",
"1*	c #1A3758",
"2*	c #579A42",
"3*	c #36624E",
"4*	c #1C3C5F",
"5*	c #193657",
"6*	c #132D49",
"7*	c #1A2B43",
"8*	c #282425",
"9*	c #282323",
"0*	c #28262D",
"a*	c #274B85",
"b*	c #C8CBE1",
"c*	c #9B9FB0",
"d*	c #033258",
"e*	c #38634F",
"f*	c #599A41",
"g*	c #142D49",
"h*	c #264D77",
"i*	c #204268",
"j*	c #284669",
"k*	c #CACCDF",
"l*	c #9B9AA4",
"m*	c #538D3B",
"n*	c #254B75",
"o*	c #2A4E7F",
"p*	c #365799",
"q*	c #37579A",
"r*	c #365798",
"s*	c #2B4169",
"t*	c #8E8F9B",
"u*	c #7F9E7C",
"v*	c #64AF50",
"w*	c #142E4A",
"x*	c #244B74",
"y*	c #315890",
"z*	c #4B76CC",
"A*	c #4C77CE",
"B*	c #4B75CB",
"C*	c #2E3D68",
"D*	c #0B0000",
"E*	c #5EA346",
"F*	c #4E8B3E",
"G*	c #121C2B",
"H*	c #213146",
"I*	c #2A3A57",
"J*	c #3D4F7D",
"K*	c #3C4E7D",
"L*	c #2B4376",
"M*	c #274073",
"N*	c #161F39",
"O*	c #0D0600",
"P*	c #5DA246",
"Q*	c #41804E",
"R*	c #121310",
"S*	c #201E1E",
"T*	c #262525",
"U*	c #363537",
"V*	c #333334",
"W*	c #0B0900",
"X*	c #050E02",
"Y*	c #5EA244",
"Z*	c #4EA178",
"`*	c #5BAE65",
" =	c #3E835A",
".=	c #070707",
"+=	c #0A0A0B",
"@=	c #121214",
"#=	c #111112",
"$=	c #020202",
"%=	c #0D200C",
"&=	c #5FA447",
"*=	c #63B15E",
"==	c #60B769",
"-=	c #63BC6C",
";=	c #4BA581",
">=	c #3E8D63",
",=	c #092011",
"'=	c #61AE56",
")=	c #68BC69",
"  . + @ @ # $ @ @ $ % & * = - ; > > > > > > > > > > > > , % '   ) ) ! ~ = { = $ % @ ~ ~ # @ @ = ] ",
"= % $ # # # # # ~ ~ ^ / ( _ : < [ [ [ [ [ [ [ [ [ [ [ [ } | 1 2 3 4 % # $ 5 % ~ ~ ~ ~ ~ $ # # @ 6 ",
"# # $ # $ # $ # ~ ~ 7 8 9 9 0 a b c c c c c c c c c c d e f 9 g h # ~ ~ $ ~ ~ ~ ~ ~ ~ ~ # $ # $ # ",
"# $ # $ # $ # $ i j k l m m n o b d d d d d d d d d d d p q m m r s t ^ ~ ~ ~ ~ ~ ~ ~ ~ $ # $ # # ",
"$ + $ # $ # $ # j u v w x x x d d d d d d d d d d d d d b x x y z A B C ~ ~ ~ ~ ~ ~ ~ ~ ~ ~ # ~ $ ",
"D E # $ # $ F G H I J K d d d d d d d d d d d d d d d d d d d x L M N O P Q ~ ~ ~ ~ ~ ~ ~ ~ ~ 6 R ",
"S T $ # $ # U V W X Y Z d d d d d d d d d d d d d d d d d b `  ...+.@.#.$.%.~ ~ ~ ~ ~ ~ ~ ~ # &.*.",
") =.# $ # $ -.V W ;.>.Z d d d d d d d d d d d d d d d d b ,.'.).!.~.{.].^.%.~ ~ ~ ~ ~ ~ ~ ~ # % ] ",
"4 + /./.~ ~ (.V W ;.>.Z d d d d d d d d d d d d d d d b ` _.:.<.[.}.|.1.^.2.~ ~ ~ ~ ~ ~ @ ~ ~ + 3.",
"T T 4.+ 5.6.7.8.9.;.>.Z d d d d d d d d d d d d d d c 0.a.b.c.d.e.f.g.h.i.j.k.l.~ ~ ~ ~ ~ ~ ! m.T ",
"n.*.T + o.V p.q.r.s.t.u.v.d d d d d d d d d d d d d c w.x.y.d.z.z.A.B.C.D.E.F.G.H.I.I.^ ~ J.E K.L.",
"M.. + /.N.V O.P.Q.R.S.T.>.U.d d d d d d d d d d d d c V.W.X.z.Y.Z.Z.`. +.+++V @+#+$+%+&+~ ~ @ = *+",
"M.. # # N.V =+-+;+>+,+'+)+!+~+{+{+{+{+{+{+{+{+{+{+{+]+^+W.X.X./+(+_+:+:+<+[+}+|+1+2+2+3+4+5+# =   ",
"M.6+=.+ N.V 7+8+9+0+a+b+8+c+d+d+d+d+d+d+d+d+d+d+d+d+e+f+g+X.X.W.h+K i+i+j+k+l+m+n+o+p+q+r+s+t+R   ",
"u+M.K.! v+V w+x+y+z+A+b+8+8+8+8+8+8+8+8+8+8+8+8+8+8+B+C+g+X.X.W.V.c K D+E+F+G+H+I+J+K+L+M+N+O+P+M.",
"u+Q+R+K.S+V T+x+U+V+W+X+8+8+8+8+8+8+8+8+8+8+8+8+8+8+B+C+g+X.X.W.Y+x Z+`+V V V  @X.z.d..@+@@@#@> M.",
"u+$@%@&@*@=@-@;@>@,@'@)@8+8+8+8+8+8+8+8+8+8+8+8+8+8+B+!@~@{@X.]@^@/@(@_@:@<@[@}@d.z.d.|@1@2@#@> u+",
"u+3@4@V 5@6@7@8@9@0@a@8+8+8+8+8+8+8+8+8+8+8+8+8+8+8+B+b@c@d@X.e@f@g@h@i@j@k@l@m@d.d.X.n@o@p@#@>   ",
"u+q@r@V s@t@u@v@w@x@y@z@8+8+8+8+8+8+8+8+8+8+8+8+8+8+8+A@B@C@l@{@D@E@F@G@H@I@J@J@J@J@K@L@M@N@O@P@) ",
"u+Q@R@V S@6@u@u@T@U@V@W@X@X@X@X@X@X@X@X@X@X@X@X@X@Y@Z@`@ #.#+#@###$#V %#&#+@*#*#*#*#=#-#;#>#,#! ) ",
"'#)#!#~#{#u@u@u@u@]#^#/#(#(#(#_#:#<#[#(#[#}#|#1#2#3#4#5#6#7#8#9#0#a#b#c#d#e#e#e#e#e#e#f#g#h#i#@ ! ",
"V j#k#l#m#n#u@u@u@u@]#o#v@v@v@p#q#r#s#v@v@t#u#v#w#x#y#z#A#B#C#D#E#E#F#A G#H#H#H#H#H#I#J#~ ~ J.K#= ",
"L#M#N#O#P#Q#R#u@u@u@u@u@n#S#T#U#V#W#u@X#T#Y#Z#`# $.$+$@$#$V $$%$&$*$=$-$;$>$,$'$'$'$'$)$~ ~ ~ !$& ",
"= ~${$]$^.^$/$W#($($W#u@n#_$:$<$n#n#n#[$}$|$1$2$3$4$5$6$7$8$9$0$a$b$c$d$e$f$~ ~ ~ ~ ~ ~ ~ ~ ~ /.= ",
"# # g$h$h$i$j$k$k$l$m$W#u@n#W#n$o$:$:$o$p$q$r$s$t$u$v$w$x$y$z$a$a$a$A$B$C$D$~ ~ ~ ~ ~ ~ ~ ~ ~ ~ ~ ",
"4 = 5 @ ~ @ (.V E$F$G$W#u@H$I$J$T#T#T#T#K$L$M$N$N$O$P$Q$R$a$S$A$T$U$V$W$X$Y$~ ~ ~ ~ ~ ~ ~ ~ @ ! 4 ",
"*.*.D + ~ ~ Z$V G$u@u@u@W#`$ %.%t@u@u@u@u@H$+%@%#%$%%%&%*%=%-%;%>%,%'%)%!%~ ~ ~ ~ ~ ~ ~ ~ ~ =.K.*.",
"R+6+! + ~ ~ ~%{%]%^%.%.%/%(%_%:%.%.%.%<%[%}%|%1%2%3%4%5%6%7%8%9%0%a%b%c%~ ~ ~ ~ ~ ~ ~ ~ ~ ~ 5 d%u+",
"u+=.~ J.~ ~ ~ ~ e%V V V ]$f%~ g%h%V V i%j%k%l%m%V V n%o%p%V V V {%~ ~ ~ ~ ~ ~ ~ ~ ~ ~ ~ ~ /.# 4   ",
"  d%K#~ ~ ~ ~ ~ %.q%q%q%q%r%s%~ ~%t%u%v%w%x%y%z%A%B%C%D%E%F%q%G%H%~ ~ ~ ~ ~ ~ ~ ~ ~ ~ ~ ~ ~ @ ! ) ",
"u+*.6+K#~ ~ ~ ~ ~ ~ ~ ~ I%H%s%~ ~ J%K%L%V M%N%O%P%Q%R%V S%~ ~ ~ ~ ~ ~ ~ ~ ~ ~ ~ ~ ~ ~ ~ ~ @ =.Q+u+",
"M.u+K.T%5 ~ ~ ~ ~ ~ ~ ~ ~ ~ ~ ~ ~ ~ U%V%W%X%Y%Z%`% &.&+&@&o.#&~ ~ ~ ~ ~ ~ ~ ~ ~ ~ ~ ~ ~ @ 4.*+L.Q+",
"M.u+u+6+3.# # $ # $&# $ # $ # $ ~ %&&&*&=&-&;&>&,&'&)&!&~&V {&~ ~ ~ ~ ~ ~ ~ ~ ~ ~ ~ ~ ~ K#d%]&R+u+",
"Q+  R 4 @ $ $ # $ # $ # $ # $ # ~ ^&V /&(&_&:&<&[&}&|&1&2&3&4&~ ~ ~ ~ ~ ~ ~ ~ ~ ~ ~ ~ ~ J./.=.Q+u+",
"Q+R 4 @ $ # $ # # $ # $ # $ # 5&6&7&V 8&9&0&a&b&c&d&e&f&g&h&i&I%j&~ ~ ~ ~ ~ ~ ~ ~ ~ ~ ~ # # @ !   ",
"u+6+k&@ # $ # $ $ # $ # $ # l&m&n&o&p&q&r&s&t&u&v&w&x&y&z&A&B&C&o.i#~ ~ ~ ~ ~ ~ ~ ~ ~ ~ ~ + &.R u+",
"] ] D @ # # $ # # $ # $ # $ D&E&V F&G&H&I&J&K&L&M&N&O&y&P&Q&R&V _%i#~ ~ ~ ~ ~ ~ ~ ~ ~ ~ ~ ~ =.T%R ",
"@ + + $ # $ # $ $ # $ # $ # S&T&V U&V&W&X&Y&Z&`& *.*+*y&P&@*#*V _%i#~ ~ ~ ~ ~ ~ ~ ~ ~ ~ ~ ~ @ % 5 ",
"# # $ # $ # $ # # $ # $ # $*%*&*V **=*-*V ;*>*,*,*'*)*y&!*~*{*V _%i#~ ~ ~ ~ ~ ~ ~ ~ ~ ~ ~ ~ # # ~ ",
"E 3.# $ # $ # $ $ # $ # $ # $ {%V ]*^*/*V (*_*:*:*<*[*y&}*|*1*V {%i#~ ~ ~ ~ ~ ~ ~ ~ ~ ~ ~ ~ ~ @ ! ",
"6+k&~ ~ ~ ~ ~ ~ # $ # $ # $ # 2*o.3*4*5*6*7*8*9*9*0*a*b*c*d*e*o.f*$ # $ # $ # $ ~ ~ ~ ~ ~ ~ # 4 & ",
"K#K#~ ~ ~ ~ ~ ~ $ # $ # $ # $ # ~ F%V g*h*i*V V V V j*k*l*V m*~ $ # $ # $ # $ # ~ ~ ~ ~ ~ ~ $ ~ 5 ",
"~ ~ ~ ~ ~ ~ ~ ~ # $ # $ # $ # $ ~ q%V g*n*o*p*q*q*r*s*t*u*(.v*~ # $ # $ # $ # $ ~ ~ ~ ~ # $ # $ ~ ",
"~ ~ ~ ~ ~ ~ ~ ~ $ # $ # $ # $ # ~ q%V w*x*y*z*A*A*B*C*D*E*~ ~ ~ $ # $ # $ # $ # ~ ~ ~ ~ $ # $ # ~ ",
"@ $ $ $ # ~ # ~ # $ # @ @ @ @ + K#F*V G*H*I*J*K*L*M*N*O*P*$ @ K#% K#/.~ @ @ l&# ~ ~ # + # $ # @ + ",
"6+! $ $ ~ ~ ~ ~ $ # + D ! = T%K.]&Q*V R*S*T*U*V*W*V X*V Y*+ T K.]&T%! ~ % D ! # ~ # # # $ # # 4 T%",
"M.{ . 4.4 ~ + d%T ! 5 *+{ T R+S S Z*`* =.=+=@=#=$=%=&=*===-=Q+;=;=R+d%E R Q+! 4 . R 3.$ $ E * R R+",
"u+Q+R+S ! ~ 4 *.n.6+% { M.u+Q+M.u+M.u+>=V V V V V ,='=E u+M.    u+u+u+M.M.  ! )=n.n.4.# @ & u+u+u+"};
