/* XPM */
static char *wall[] = {
/* columns rows colors chars-per-pixel */
"48 48 71 1 ",
"  c #4E7577",
". c #4F7C77",
"X c #417579",
"o c #427A79",
"O c #537476",
"+ c #6B7471",
"@ c #9E6E52",
"# c #9F7053",
"$ c #967258",
"% c #98715F",
"& c #937E5C",
"* c #9A7A59",
"= c #A56D4F",
"- c #AF6E4D",
"; c #B26E4C",
": c #B7704C",
"> c #BC744E",
", c #A46D51",
"< c #AF6F50",
"1 c #B06F50",
"2 c #A17053",
"3 c #AF7252",
"4 c #B37251",
"5 c #B77854",
"6 c #957262",
"7 c #C57D54",
"8 c #CB7F54",
"9 c #56B743",
"0 c #57B843",
"q c #59B944",
"w c #55B54B",
"e c #5FBC48",
"r c #4FAF5A",
"t c #50AF5A",
"y c #50B056",
"u c #63BD4B",
"i c #499F6F",
"p c #46847A",
"a c #47897B",
"s c #498F7B",
"d c #499577",
"f c #499C72",
"g c #499179",
"h c #7B946B",
"j c #759A6D",
"k c #4DA665",
"l c #49A867",
"z c #49A669",
"x c #49A868",
"c c #4FAF7B",
"v c #5EA977",
"b c #53AE7A",
"n c #59AA78",
"m c #4CB07C",
"M c #66C04D",
"N c #6EC453",
"B c #72C756",
"V c #74C857",
"C c #76C958",
"Z c #7BCB59",
"A c #94815D",
"S c #CC8256",
"D c #D08457",
"F c #D38658",
"G c #8ED45F",
"H c #91D55F",
"J c #92D660",
"K c #ADE569",
"L c #B1E76A",
"P c #BCEE6F",
"I c None",
/* pixels */
"IIIIIIIIIIIIIIIIIIIIIIuZBqIIIIIIIIIIIIIIIIIIIIII",
"IIIIIIIIIIIIIIIIIIIItuJPKBwkIIIIIIIIIIIIIIIIIIII",
"IIIIIIIIIIIIIIIIIIltuJPPPKBwlxIIIIIIIIIIIIIIIIII",
"IIIIIIIIIIIIIIIIIruBGPPPPPKBVekIIIIIIIIIIIIIIIII",
"IIIIIIIIIIIIIIIItuVVGPPPPPLVVNwlIIIIIIIIIIIIIIII",
"IIIIIIIIIIIIIIIruVVVGPPPPPKVVVBwlIIIIIIIIIIIIIII",
"IIIIIIIIIIIIIIy9uVVVVJPPPLZVVVNqwlIIIIIIIIIIIIII",
"IIIIIIIIIIIIIt9uVVVVVCGPLZVVVVVNqwkIIIIIIIIIIIII",
"IIIIIIIIIIssr999MVVVVVCZZVVVVVNe99wgsIIIIIIIIIII",
"IIIIIIIIIsgfy99uBVVVVVVVVVVVVVVN099xdsIIIIIIIIII",
"IIIIIIIIsgft999uVBVVVVVVVVVVVVVN099wxgsIIIIIIIII",
"IIIIIIIIsfxr9999quVVVVVVVVVVVVqq9999lzgIIIIIIIII",
"IIIIIIIXpflxy999uBVVVVVVVVVVVVN0999lxzgoIIIIIIII",
"IIIIIIIXpflly999uVVVBVVVVVVVVVN0999lxxgoIIIIIIII",
"IIIIIIXpfzxt99990uBMuVVVVVNeNNq0999wllzgoIIIIIII",
"IIIIIXpszzxy999900qqeBVVVVN0q0909999lxlgsoIIIIII",
"IIIIIXpflllr999999999uBBBN09999999wlllxzsoIIIIII",
"IIIIIXpzxllllr99909999000099999999llllxxgXIIIIII",
"IIIIXXpfllllllr999999999099999999wlxlllxgoXIIIII",
"IIIIXpsgzxllllr999999999009999999llxlllxgsoIIIII",
"IIIIXpgfzllzlllr99999999999999rwwllllxxgssoIIIII",
"IIIXXpgfzxllzlllllr99999999999lxlxlllxzgssoXIIII",
"IIIXXpsgixllxllllllr99yllr99wlxxllxlxxggssoXIIII",
"IIIXXpssfxxxllxlllllllllxxllllxxxllllzgsssoXIIII",
"IIIXXpgssfxxxxllxllllxxlxxxlllxlllxlzzggssoXIIII",
"IIIXXpsssggfxlllllxlllllxxlxxlllxllzggsssoXXIIII",
"IIIXXXpssssfzlzzlxllxllxxxlxlllzzxxzgsgssoXXIIII",
"IIIIXXpsssssfxffzllzzlllxlzdllidzzzgsssssXXIIIII",
"IIIIXXpsssssgggsfzzidxllzzzdlzssgggsssssoXXIIIII",
"IIIIIXXpsssssssssggggdzzzzsssgssssssssssoXIIIIII",
"IIIIIXXXXpssssssgssssgggggssssssssgsssaoXXIIIIII",
"IIIIIIXXXpssssssssssssssssgssssssssoasoXXIIIIIII",
"IIIIIIIXXXpssppsssssssssgssssssssssXXXXXIIIIIIII",
"IIIIIIIIXXXXXXossssssssssssgsaoasaoXXXXIIIIIIIII",
"IIIIIIIIIoooXXXpsspXossssssaXoXXXXXXXoIIIIIIIIII",
"IIIIIIIIIccgoXXXXoXXXpasaaoXXXXXXXopbcIIIIIIIIII",
"IIIIIIIIIccccg O XXXXXXoXoXXXXXOO.bbccIIIIIIIIII",
"IIIIIIIIIcccmh,46 O XXXXXXXXOO+<3%bcccIIIIIIIIII",
"IIIIIIIIIImcmj4F74-%OOOOOOO+11>DS*bcccIIIIIIIIII",
"IIIIIIIIIImmmmA5S7;;<-<:1111;:8S*vbccIIIIIIIIIII",
"IIIIIIIIIIIccccA2##2;;7SS:;<##3AvmbmcIIIIIIIIIII",
"IIIIIIIIIIIcccmmnnnj=7FFF8;AnnnnbbmcIIIIIIIIIIII",
"IIIIIIIIIIIIImmmmbmbj<SSD7AnccccmbcIIIIIIIIIIIII",
"IIIIIIIIIIIIIImmbmbcbj222AncccccmIIIIIIIIIIIIIII",
"IIIIIIIIIIIIIIIIIccccbnnnncmcccIIIIIIIIIIIIIIIII",
"IIIIIIIIIIIIIIIIIIIcccccbmmbmIIIIIIIIIIIIIIIIIII",
"IIIIIIIIIIIIIIIIIIIIccccccbmIIIIIIIIIIIIIIIIIIII",
"IIIIIIIIIIIIIIIIIIIIIIIIIIIIIIIIIIIIIIIIIIIIIIII"
};
